<?xml version="1.0" encoding="utf-8"?>
<!-- Generator: Adobe Illustrator 16.0.0, SVG Export Plug-In . SVG Version: 6.00 Build 0)  -->
<!DOCTYPE svg PUBLIC "-//W3C//DTD SVG 1.1//EN" "http://www.w3.org/Graphics/SVG/1.1/DTD/svg11.dtd">
<svg version="1.1" xmlns="http://www.w3.org/2000/svg" xmlns:xlink="http://www.w3.org/1999/xlink" x="0px" y="0px" width="500px"
	 height="500px" viewBox="0 0 500 500" enable-background="new 0 0 500 500" xml:space="preserve">
<g id="Layer_2">
</g>
<g id="Layer_1">
	<g display="none">
		<linearGradient id="SVGID_1_" gradientUnits="userSpaceOnUse" x1="167.4258" y1="159.5859" x2="308.9777" y2="340.2961">
			<stop  offset="0" style="stop-color:#000000"/>
			<stop  offset="1" style="stop-color:#2484C6;stop-opacity:0"/>
		</linearGradient>
		<path display="inline" fill="url(#SVGID_1_)" d="M246.647,386.273c-6.641,4.429-13.373,8.713-20.146,12.936
			c-6.771,4.228-13.612,8.342-20.518,12.35c-13.802,8.031-27.8,15.742-42.063,22.975c-14.269,7.216-28.777,14.021-43.733,19.866
			c-7.488,2.892-15.082,5.555-22.822,7.829c-7.741,2.265-15.633,4.16-23.73,5.282c-8.083,1.056-16.458,1.474-24.844-0.383
			c-2.089-0.456-4.164-1.108-6.188-1.944c-2.024-0.828-4.002-1.863-5.832-3.154c-1.836-1.278-3.539-2.78-5.038-4.468
			c-1.478-1.707-2.738-3.585-3.786-5.554c-2.082-3.96-3.218-8.238-3.803-12.469c-0.599-4.243-0.594-8.464-0.336-12.615
			c0.552-8.313,2.262-16.354,4.403-24.201c4.315-15.703,10.534-30.634,17.315-45.205c3.404-7.282,6.98-14.478,10.688-21.583
			c3.637-7.07,7.43-14.177,11.268-21.204c15.37-28.1,32.143-55.463,50.505-81.759c9.188-13.142,18.738-26.041,28.769-38.57
			c9.989-12.562,20.496-24.719,31.465-36.45c5.468-5.882,11.063-11.646,16.774-17.296c5.695-5.665,11.523-11.198,17.47-16.605
			c11.874-10.831,24.242-21.138,37.112-30.797c12.871-9.657,26.243-18.676,40.189-26.785c6.973-4.054,14.091-7.873,21.375-11.396
			c3.645-1.759,7.333-3.437,11.079-5.015c1.872-0.791,3.76-1.554,5.673-2.281c1.939-0.734,3.782-1.414,5.922-2.08l-0.57,0.221
			c3.437-1.602,6.759-2.987,10.18-4.347c3.4-1.356,6.842-2.601,10.308-3.776c6.933-2.344,13.976-4.388,21.141-6.021
			c7.162-1.629,14.45-2.856,21.854-3.406c7.394-0.539,14.932-0.432,22.398,0.964c7.43,1.386,14.873,4.202,21.039,9.049
			c6.194,4.799,10.734,11.531,13.343,18.687c2.661,7.175,3.69,14.699,3.915,22.095c0.2,7.414-0.394,14.765-1.463,21.998
			c-1.046,7.243-2.59,14.372-4.365,21.421c-1.813,7.042-3.95,13.979-6.25,20.849c-4.62,13.736-9.996,27.17-15.776,40.405
			c-5.785,13.234-12.007,26.261-18.501,39.139c-3.228,6.448-6.604,12.821-10.006,19.177c-3.393,6.36-6.881,12.668-10.379,18.968
			l-0.441-0.236c13.567-25.409,26.422-51.226,37.631-77.763c5.583-13.272,10.757-26.726,15.161-40.433
			c2.197-6.854,4.207-13.768,5.932-20.754c1.697-6.99,3.162-14.043,4.131-21.168c0.992-7.118,1.508-14.313,1.255-21.489
			c-0.273-7.158-1.337-14.35-3.886-21.047c-2.506-6.689-6.715-12.783-12.4-17.124c-5.661-4.381-12.552-6.956-19.583-8.209
			c-7.058-1.262-14.295-1.317-21.442-0.736c-7.158,0.59-14.256,1.843-21.25,3.495c-6.995,1.656-13.895,3.719-20.687,6.079
			c-6.784,2.375-13.498,5.009-20.004,8.036l-0.025,0.012l-0.033,0.011c-7.528,2.476-14.833,5.742-21.995,9.195
			c-7.157,3.489-14.168,7.28-21.041,11.305c-13.746,8.052-26.95,17.018-39.662,26.621c-12.712,9.606-24.935,19.858-36.672,30.635
			c-5.877,5.379-11.64,10.885-17.271,16.522c-5.646,5.623-11.179,11.358-16.585,17.213c-10.849,11.675-21.209,23.797-31.203,36.211
			c-10.002,12.409-19.533,25.194-28.708,38.228c-18.338,26.078-35.114,53.244-50.505,81.164c-3.844,6.983-7.619,13.998-11.291,21.08
			c-3.711,7.054-7.28,14.18-10.679,21.387c-3.395,7.207-6.609,14.501-9.552,21.902c-2.948,7.397-5.614,14.91-7.794,22.564
			c-2.163,7.65-3.885,15.459-4.477,23.381c-0.281,3.954-0.315,7.941,0.207,11.864c0.508,3.917,1.517,7.791,3.325,11.295
			c0.911,1.742,1.998,3.391,3.271,4.889c1.295,1.478,2.766,2.797,4.368,3.934c1.597,1.148,3.345,2.082,5.161,2.843
			c1.814,0.768,3.699,1.382,5.627,1.818c7.729,1.789,15.804,1.498,23.669,0.533c7.888-1.021,15.667-2.813,23.325-4.979
			c7.66-2.177,15.208-4.747,22.665-7.55c14.91-5.629,29.47-12.164,43.791-19.161c14.321-7.004,28.402-14.497,42.298-22.314
			c13.885-7.834,27.614-15.959,41.062-24.519L246.647,386.273z"/>
	</g>
	<g display="none">
		<linearGradient id="SVGID_2_" gradientUnits="userSpaceOnUse" x1="328.1797" y1="156.1436" x2="186.6276" y2="336.854">
			<stop  offset="0" style="stop-color:#FFFFFF"/>
			<stop  offset="1" style="stop-color:#2484C6;stop-opacity:0"/>
		</linearGradient>
		<path display="inline" fill="url(#SVGID_2_)" d="M253.624,385.854c13.592,8.332,27.503,16.134,41.463,23.805
			c13.989,7.623,28.155,14.915,42.541,21.709c14.382,6.797,28.999,13.083,43.884,18.52c7.438,2.726,14.952,5.216,22.552,7.308
			c7.597,2.084,15.29,3.784,23.014,4.719c7.694,0.887,15.531,1.068,22.739-0.676c1.8-0.422,3.532-1.008,5.18-1.722
			c1.652-0.708,3.216-1.563,4.625-2.6c1.416-1.025,2.701-2.199,3.832-3.512c1.107-1.332,2.056-2.798,2.856-4.359
			c1.585-3.142,2.491-6.691,2.933-10.356c0.458-3.667,0.397-7.467,0.095-11.262c-0.632-7.606-2.369-15.226-4.555-22.715
			c-2.199-7.497-4.899-14.885-7.861-22.183c-2.928-7.313-6.132-14.535-9.519-21.682c-3.397-7.131-6.938-14.253-10.679-21.193
			l-5.634-10.552l-2.816-5.275l-1.41-2.638l-1.467-2.584c-3.935-6.88-7.767-13.81-11.784-20.648l-6.143-10.2l-3.071-5.1
			c-1.018-1.704-2.041-3.403-3.127-5.065l-6.406-10.032c-2.151-3.333-4.222-6.72-6.485-9.979l-6.668-9.855l-3.333-4.929l-3.457-4.84
			c-4.625-6.442-9.174-12.94-14.035-19.204l-7.188-9.472l-7.433-9.277c-4.866-6.259-10.153-12.163-15.184-18.283
			c-2.559-3.023-5.229-5.948-7.837-8.928c-2.621-2.968-5.226-5.952-7.961-8.814l-8.106-8.681l-8.331-8.46
			c-2.748-2.851-5.621-5.571-8.476-8.311c-2.862-2.732-5.676-5.518-8.634-8.144c-11.604-10.76-23.731-20.944-36.318-30.502
			c-12.588-9.553-25.64-18.5-39.245-26.472c-6.774-4.034-13.718-7.765-20.768-11.23c-1.757-0.884-3.535-1.711-5.316-2.528
			c-1.773-0.843-3.572-1.608-5.365-2.391c-1.796-0.768-3.602-1.513-5.41-2.211c-0.905-0.346-1.811-0.705-2.713-1.02
			c-0.889-0.325-1.842-0.653-2.636-0.906l-0.273-0.087l-0.214-0.095c-5.996-2.657-12.334-5.068-18.609-7.337
			c-6.306-2.263-12.693-4.29-19.133-6.09c-12.879-3.539-26.058-6.169-39.242-6.623c-6.576-0.195-13.149,0.208-19.447,1.576
			c-3.131,0.727-6.193,1.672-9.093,2.944c-0.735,0.297-1.413,0.698-2.124,1.039l-1.056,0.532c-0.347,0.185-0.668,0.409-1.003,0.611
			c-0.662,0.419-1.339,0.817-1.991,1.249l-1.862,1.417c-2.393,1.983-4.632,4.193-6.355,6.812l-0.684,0.953
			c-0.225,0.321-0.396,0.678-0.597,1.015l-1.171,2.047c-0.352,0.706-0.65,1.441-0.981,2.16c-0.321,0.724-0.674,1.434-0.898,2.204
			c-2.176,5.998-3.072,12.531-3.175,19.098c-0.078,6.578,0.508,13.224,1.631,19.805c1.139,6.578,2.517,13.15,4.355,19.621
			c0.457,1.618,0.852,3.253,1.36,4.858l1.492,4.826c0.946,3.233,2.136,6.394,3.201,9.594c2.246,6.363,4.674,12.67,7.243,18.925
			c1.232,3.148,2.646,6.224,3.961,9.341c1.31,3.119,2.741,6.187,4.143,9.268l2.108,4.621l2.19,4.582
			c1.481,3.045,2.899,6.123,4.433,9.144l4.546,9.093c1.521,3.028,3.107,6.024,4.658,9.039l2.34,4.516l2.406,4.481l4.821,8.96
			l-0.434,0.248l-4.994-8.869l-2.493-4.437l-2.428-4.474c-1.609-2.987-3.255-5.955-4.836-8.957l-4.704-9.028
			c-1.579-3.003-3.044-6.065-4.572-9.095l-2.262-4.561l-2.18-4.6c-1.449-3.068-2.929-6.123-4.288-9.234
			c-1.364-3.107-2.826-6.172-4.109-9.314c-2.67-6.242-5.201-12.543-7.554-18.912c-1.119-3.205-2.361-6.368-3.363-9.614l-1.574-4.844
			c-0.537-1.611-0.96-3.258-1.445-4.885c-1.946-6.509-3.459-13.145-4.691-19.827c-1.202-6.69-1.872-13.488-1.854-20.295
			c0.046-6.796,0.9-13.655,3.173-20.112c0.235-0.823,0.604-1.596,0.943-2.381c0.349-0.78,0.667-1.575,1.041-2.343l1.251-2.241
			c0.216-0.369,0.401-0.757,0.642-1.111l0.735-1.052c1.863-2.879,4.298-5.348,6.908-7.547l2.029-1.573
			c0.708-0.48,1.44-0.923,2.159-1.387c0.364-0.224,0.716-0.471,1.091-0.675l1.139-0.59c0.766-0.379,1.504-0.818,2.292-1.147
			c3.12-1.405,6.385-2.445,9.701-3.246c6.657-1.512,13.506-1.984,20.305-1.847c13.624,0.347,27.071,2.918,40.193,6.393
			c6.56,1.77,13.058,3.768,19.472,6.003c6.416,2.237,12.763,4.65,18.999,7.381l-0.05-0.019c7.628,2.508,14.922,5.77,22.118,9.236
			c7.178,3.499,14.23,7.259,21.104,11.32c13.805,8.028,27.025,17.028,39.772,26.635c12.744,9.612,25.018,19.85,36.758,30.665
			c2.993,2.641,5.84,5.439,8.735,8.185c2.889,2.753,5.795,5.488,8.574,8.352l8.427,8.503l8.2,8.721
			c2.766,2.877,5.4,5.875,8.051,8.857c2.639,2.993,5.34,5.932,7.927,8.97l7.709,9.157c1.274,1.534,2.589,3.036,3.83,4.598
			l3.727,4.684l7.452,9.366l7.205,9.559c4.871,6.321,9.427,12.874,14.059,19.371l3.462,4.881l3.337,4.968l6.673,9.936
			c2.266,3.284,4.337,6.696,6.488,10.055l6.407,10.108c1.086,1.674,2.109,3.386,3.127,5.102l3.069,5.136l6.14,10.272
			c4.019,6.893,7.858,13.89,11.796,20.829l1.468,2.608l1.401,2.642l2.799,5.285l5.599,10.57c3.764,7.041,7.293,14.197,10.702,21.414
			c3.394,7.224,6.608,14.534,9.551,21.957c2.948,7.419,5.616,14.957,7.799,22.646c2.164,7.686,3.89,15.538,4.48,23.535
			c0.28,3.992,0.312,8.025-0.223,12.012c-0.52,3.979-1.551,7.935-3.411,11.531c-0.937,1.789-2.059,3.484-3.371,5.025
			c-1.335,1.521-2.852,2.878-4.501,4.045c-1.644,1.179-3.437,2.136-5.296,2.911c-1.856,0.782-3.779,1.406-5.74,1.849
			c-7.863,1.811-16.002,1.501-23.915,0.524c-7.934-1.035-15.739-2.841-23.418-5.021c-7.681-2.189-15.241-4.772-22.709-7.587
			c-14.931-5.652-29.498-12.208-43.826-19.225c-14.327-7.022-28.409-14.533-42.306-22.368
			c-13.887-7.853-27.611-15.991-41.065-24.572L253.624,385.854z"/>
	</g>
	<g>
		<linearGradient id="SVGID_3_" gradientUnits="userSpaceOnUse" x1="327.5605" y1="156.9287" x2="187.2394" y2="336.0676">
			<stop  offset="0" style="stop-color:#000000"/>
			<stop  offset="1" style="stop-color:#2484C6;stop-opacity:0"/>
		</linearGradient>
		<path fill="url(#SVGID_3_)" d="M253.569,385.938c13.524,8.444,27.322,16.448,41.271,24.159
			c13.959,7.694,28.097,15.061,42.464,21.933c14.364,6.872,28.967,13.247,43.868,18.761c7.447,2.759,14.978,5.283,22.605,7.411
			c7.625,2.12,15.358,3.859,23.156,4.832c7.772,0.92,15.718,1.148,23.161-0.617c1.857-0.429,3.658-1.028,5.382-1.766
			c1.726-0.732,3.372-1.624,4.865-2.711c1.5-1.076,2.869-2.315,4.073-3.703c1.183-1.406,2.192-2.955,3.043-4.598
			c1.685-3.305,2.636-7.001,3.107-10.779c0.485-3.782,0.436-7.666,0.143-11.532c-0.616-7.748-2.348-15.451-4.524-23.012
			c-2.191-7.567-4.879-15.011-7.836-22.353c-2.933-7.352-6.141-14.606-9.53-21.78c-3.402-7.161-6.94-14.297-10.688-21.272
			l-5.622-10.559l-2.811-5.279l-1.406-2.639l-1.468-2.592c-3.937-6.902-7.771-13.855-11.789-20.714l-6.143-10.226l-3.071-5.113
			c-1.018-1.708-2.042-3.412-3.127-5.078l-6.407-10.059c-2.152-3.343-4.223-6.738-6.487-10.006l-6.67-9.885l-3.335-4.941
			l-3.459-4.855c-4.628-6.461-9.18-12.979-14.045-19.264l-7.194-9.502l-7.44-9.31l-3.72-4.654c-1.238-1.553-2.551-3.044-3.823-4.568
			l-7.671-9.116c-2.568-3.028-5.25-5.958-7.869-8.942c-2.632-2.974-5.247-5.963-7.992-8.831l-8.14-8.695l-8.365-8.476
			c-2.76-2.855-5.645-5.582-8.512-8.326c-2.874-2.737-5.698-5.528-8.67-8.159c-11.651-10.78-23.832-20.984-36.475-30.563
			c-12.645-9.573-25.758-18.54-39.435-26.533c-6.81-4.044-13.792-7.786-20.889-11.264c-1.768-0.886-3.559-1.717-5.354-2.538
			c-1.785-0.846-3.599-1.615-5.406-2.402c-3.606-1.524-7.331-3.02-10.926-4.182l-0.169-0.055l-0.124-0.055
			c-6.082-2.684-12.423-5.097-18.751-7.353c-6.345-2.252-12.772-4.268-19.256-6.056c-12.968-3.513-26.243-6.12-39.587-6.533
			c-6.655-0.173-13.328,0.256-19.755,1.676c-3.197,0.754-6.332,1.734-9.311,3.054c-0.754,0.308-1.453,0.723-2.184,1.078
			l-1.085,0.553c-0.357,0.191-0.688,0.424-1.035,0.634c-0.682,0.435-1.379,0.85-2.051,1.299l-1.922,1.473
			c-2.47,2.062-4.778,4.364-6.552,7.076l-0.701,0.989c-0.23,0.332-0.406,0.7-0.613,1.049l-1.198,2.117
			c-0.359,0.728-0.665,1.484-1.003,2.225c-0.327,0.746-0.686,1.478-0.914,2.267c-2.209,6.162-3.088,12.811-3.169,19.459
			c-0.056,6.659,0.562,13.358,1.714,19.979c1.172,6.615,2.595,13.21,4.471,19.694c0.467,1.621,0.87,3.26,1.39,4.868l1.52,4.833
			c0.965,3.238,2.172,6.4,3.256,9.602c2.282,6.366,4.745,12.672,7.349,18.922c1.25,3.147,2.681,6.219,4.012,9.333
			c1.326,3.117,2.774,6.181,4.192,9.258l2.132,4.613l2.215,4.575c1.497,3.04,2.932,6.113,4.48,9.128l4.613,9.064
			c1.551,3.015,3.166,5.996,4.746,8.996l2.384,4.494l2.45,4.457l4.906,8.914l-0.26,0.148l-4.992-8.869l-2.492-4.437l-2.427-4.474
			c-1.608-2.986-3.254-5.954-4.834-8.957l-4.701-9.027c-1.579-3.003-3.043-6.064-4.569-9.095l-2.261-4.56l-2.179-4.6
			c-1.449-3.068-2.928-6.122-4.285-9.232c-1.363-3.107-2.825-6.172-4.107-9.314c-2.668-6.24-5.197-12.54-7.548-18.907
			c-1.118-3.204-2.359-6.366-3.36-9.611l-1.572-4.842c-0.537-1.61-0.959-3.256-1.444-4.882c-1.943-6.506-3.454-13.137-4.685-19.814
			c-1.2-6.685-1.867-13.476-1.848-20.272c0.047-6.786,0.902-13.631,3.169-20.068c0.234-0.821,0.603-1.591,0.94-2.374
			c0.348-0.777,0.666-1.57,1.038-2.335l1.247-2.233c0.215-0.368,0.399-0.754,0.64-1.106l0.732-1.048
			c1.857-2.868,4.283-5.327,6.884-7.518l2.022-1.566c0.704-0.479,1.435-0.92,2.151-1.381c0.363-0.223,0.713-0.469,1.087-0.673
			l1.136-0.588c0.763-0.378,1.498-0.816,2.285-1.144c3.109-1.4,6.365-2.437,9.674-3.235c6.644-1.507,13.48-1.978,20.27-1.839
			c13.607,0.349,27.045,2.92,40.158,6.395c6.556,1.77,13.049,3.768,19.459,6.004c6.412,2.236,12.758,4.651,18.985,7.379l-0.03-0.011
			c7.607,2.502,14.903,5.766,22.093,9.23c7.173,3.498,14.221,7.257,21.09,11.318c13.797,8.027,27.011,17.025,39.751,26.631
			c12.738,9.611,25.005,19.848,36.739,30.661c2.991,2.64,5.836,5.438,8.73,8.184c2.887,2.753,5.792,5.488,8.57,8.351l8.423,8.501
			l8.195,8.72c2.765,2.877,5.397,5.874,8.047,8.855c2.638,2.993,5.337,5.932,7.922,8.969l7.707,9.155
			c1.274,1.533,2.59,3.034,3.83,4.596l3.727,4.682l7.452,9.362l7.204,9.554c4.872,6.319,9.428,12.87,14.06,19.364l3.462,4.88
			l3.337,4.966l6.673,9.932c2.266,3.283,4.337,6.694,6.489,10.052l6.408,10.104c1.085,1.674,2.108,3.385,3.126,5.1l3.07,5.135
			l6.141,10.27c4.019,6.89,7.858,13.885,11.797,20.821l1.468,2.606l1.401,2.643l2.8,5.284l5.601,10.569
			c3.764,7.037,7.293,14.192,10.703,21.405c3.394,7.221,6.607,14.527,9.551,21.945c2.948,7.415,5.615,14.948,7.797,22.631
			c2.164,7.678,3.889,15.521,4.48,23.504c0.279,3.984,0.313,8.008-0.22,11.982c-0.518,3.967-1.545,7.905-3.395,11.483
			c-0.932,1.779-2.046,3.465-3.352,4.998c-1.326,1.513-2.835,2.861-4.475,4.022c-1.634,1.173-3.418,2.124-5.269,2.897
			c-1.848,0.779-3.764,1.401-5.718,1.843c-7.837,1.806-15.962,1.5-23.865,0.525c-7.925-1.032-15.725-2.835-23.399-5.013
			c-7.677-2.188-15.234-4.768-22.7-7.58c-14.927-5.647-29.493-12.199-43.819-19.211c-14.326-7.02-28.408-14.527-42.304-22.358
			c-13.887-7.849-27.612-15.984-41.064-24.562L253.569,385.938z"/>
	</g>
	<g display="none">
		<linearGradient id="SVGID_4_" gradientUnits="userSpaceOnUse" x1="168.0693" y1="160.3525" x2="308.391" y2="339.4921">
			<stop  offset="0" style="stop-color:#FFFFFF"/>
			<stop  offset="1" style="stop-color:#2484C6;stop-opacity:0"/>
		</linearGradient>
		<path display="inline" fill="url(#SVGID_4_)" d="M246.593,386.19c-13.377,8.696-27.033,16.956-40.856,24.932
			c-13.833,7.958-27.857,15.596-42.14,22.751c-14.285,7.141-28.81,13.856-43.749,19.625c-7.479,2.857-15.056,5.486-22.769,7.725
			c-7.712,2.229-15.564,4.085-23.587,5.169c-8.006,1.022-16.273,1.393-24.423-0.44c-2.032-0.45-4.038-1.09-5.987-1.9
			c-1.949-0.805-3.844-1.804-5.59-3.044c-1.752-1.228-3.371-2.664-4.797-4.276c-1.403-1.632-2.602-3.428-3.6-5.315
			c-1.982-3.796-3.072-7.929-3.629-12.047c-0.57-4.128-0.555-8.264-0.287-12.344c0.568-8.172,2.283-16.129,4.434-23.904
			c4.344-15.56,10.562-30.418,17.329-44.937c3.401-7.255,6.975-14.426,10.684-21.513c3.648-7.075,7.435-14.148,11.274-21.159
			c15.376-28.036,32.148-55.329,50.501-81.547c9.182-13.104,18.725-25.962,28.744-38.449c9.989-12.509,20.444-24.653,31.371-36.363
			c5.445-5.871,11.019-11.625,16.706-17.265c5.673-5.655,11.479-11.178,17.399-16.575c11.825-10.811,24.142-21.097,36.955-30.737
			c12.813-9.637,26.126-18.636,40-26.723c6.937-4.043,14.017-7.852,21.255-11.362c3.621-1.752,7.284-3.423,11-4.994
			c1.857-0.787,3.729-1.546,5.621-2.268c1.908-0.726,3.762-1.409,5.808-2.047l-0.343,0.132c6.691-3.092,13.417-5.727,20.312-8.092
			c6.882-2.351,13.872-4.403,20.976-6.045c7.102-1.639,14.32-2.876,21.635-3.442c7.305-0.555,14.734-0.468,22.054,0.878
			c7.287,1.337,14.532,4.065,20.518,8.745c6.012,4.633,10.436,11.135,13.008,18.124c2.622,7.004,3.665,14.408,3.908,21.72
			c0.221,7.329-0.345,14.625-1.384,21.817c-1.018,7.201-2.532,14.303-4.278,21.332c-1.781,7.021-3.876,13.951-6.141,20.814
			c-4.547,13.725-9.854,27.164-15.568,40.411c-11.468,26.483-24.563,52.198-38.362,77.494l-0.264-0.143
			c13.572-25.409,26.433-51.226,37.647-77.765c5.587-13.274,10.764-26.729,15.172-40.44c2.2-6.855,4.212-13.772,5.938-20.761
			c1.7-6.993,3.167-14.05,4.138-21.181c0.993-7.123,1.512-14.326,1.26-21.512c-0.273-7.169-1.337-14.374-3.892-21.091
			c-2.511-6.708-6.735-12.827-12.442-17.186c-5.683-4.4-12.596-6.982-19.644-8.24c-7.074-1.267-14.322-1.323-21.48-0.741
			c-7.167,0.59-14.271,1.842-21.271,3.495c-7.002,1.656-13.906,3.72-20.704,6.08c-6.789,2.376-13.504,5.009-20.021,8.04
			l-0.015,0.007l-0.021,0.007c-7.549,2.481-14.852,5.746-22.021,9.2c-7.162,3.49-14.177,7.281-21.054,11.307
			c-13.755,8.054-26.965,17.021-39.684,26.625c-12.719,9.607-24.947,19.861-36.691,30.64c-5.88,5.38-11.645,10.887-17.278,16.525
			c-5.649,5.623-11.185,11.36-16.594,17.215c-10.854,11.677-21.222,23.799-31.214,36.22c-10.002,12.415-19.534,25.205-28.708,38.243
			c-18.338,26.087-35.112,53.262-50.501,81.19c-3.843,6.984-7.618,14.003-11.288,21.085c-3.71,7.056-7.28,14.184-10.678,21.394
			c-3.395,7.212-6.609,14.508-9.552,21.913c-2.948,7.402-5.615,14.921-7.796,22.582c-2.163,7.657-3.885,15.475-4.478,23.411
			c-0.28,3.962-0.314,7.958,0.21,11.895c0.51,3.929,1.524,7.819,3.342,11.342c0.917,1.752,2.011,3.409,3.292,4.916
			c1.303,1.486,2.783,2.813,4.395,3.956c1.606,1.154,3.363,2.093,5.188,2.857c1.822,0.77,3.715,1.386,5.649,1.823
			c7.757,1.794,15.843,1.5,23.718,0.532c7.897-1.024,15.682-2.817,23.344-4.988c7.665-2.179,15.215-4.752,22.675-7.557
			c14.914-5.634,29.475-12.173,43.798-19.174c14.322-7.008,28.404-14.504,42.299-22.325c13.887-7.838,27.614-15.966,41.063-24.529
			L246.593,386.19z"/>
	</g>
</g>
</svg>
