<?xml version="1.0" encoding="utf-8"?>
<!-- Generator: Adobe Illustrator 16.0.0, SVG Export Plug-In . SVG Version: 6.00 Build 0)  -->
<!DOCTYPE svg PUBLIC "-//W3C//DTD SVG 1.1//EN" "http://www.w3.org/Graphics/SVG/1.1/DTD/svg11.dtd">
<svg version="1.1" id="Layer_1" xmlns="http://www.w3.org/2000/svg" xmlns:xlink="http://www.w3.org/1999/xlink" x="0px" y="0px"
	 width="379px" height="224px" viewBox="0 0 379 224" enable-background="new 0 0 379 224" xml:space="preserve">
<g>
	<defs>
		<polyline id="SVGID_1_" points="-65.305,229.908 53.521,229.908 305.47,-14 -71.56,-14 -65.305,233.481 		"/>
	</defs>
	<clipPath id="SVGID_2_">
		<use xlink:href="#SVGID_1_"  overflow="visible"/>
	</clipPath>
	<g clip-path="url(#SVGID_2_)">
		<g>
			<path d="M45.957,9.604v11.403H21.493h-1v1v26.135v1h1H40.73v11.402H21.493h-1v1v27.475v1h1h24.464v11.402H7.75V9.604H45.957
				 M46.957,8.604H6.75v93.816h40.207V89.019H21.493V61.544H41.73V48.142H21.493V22.007h25.464V8.604L46.957,8.604z"/>
		</g>
		<g>
			<path d="M69.81,9.604v79.415v1h1h23.259v11.402H57.067V9.604H69.81 M70.81,8.604H56.067v93.816h39.001V89.019H70.81V8.604
				L70.81,8.604z"/>
		</g>
		<g>
			<path d="M140.703,9.604v11.403h-24.464h-1v1v26.135v1h1h19.238v11.402h-19.238h-1v1v27.475v1h1h24.464v11.402h-38.206V9.604
				H140.703 M141.703,8.604h-40.206v93.816h40.206V89.019h-25.464V61.544h20.238V48.142h-20.238V22.007h25.464V8.604L141.703,8.604z
				"/>
		</g>
		<g>
			<path d="M171.588,8.533c13.725,0,20.979,7.811,20.979,22.588v8.112H180.63v-9.051c0-8.47-4.698-10.248-8.64-10.248
				s-8.64,1.778-8.64,10.248v50.661c0,6.711,2.907,10.114,8.64,10.114s8.64-3.403,8.64-10.114V68.441h11.938v11.464
				c0,14.777-7.255,22.588-20.979,22.588s-20.979-7.811-20.979-22.588V31.122C150.608,16.344,157.863,8.533,171.588,8.533
				 M171.588,7.533c-14.474,0-21.979,8.577-21.979,23.588v48.784c0,15.01,7.506,23.588,21.979,23.588
				c14.476,0,21.979-8.578,21.979-23.588V67.441H179.63v13.402c0,6.701-2.949,9.114-7.64,9.114c-4.689,0-7.64-2.413-7.64-9.114
				V30.183c0-6.702,2.95-9.248,7.64-9.248c4.69,0,7.64,2.546,7.64,9.248v10.051h13.938v-9.112
				C193.567,16.11,186.063,7.533,171.588,7.533L171.588,7.533z"/>
		</g>
		<g>
			<path d="M242.821,9.604v11.403h-14.412h-1v1v79.414h-12.741V22.007v-1h-1h-14.413V9.604H242.821 M243.821,8.604h-45.566v13.403
				h15.413v80.414h14.741V22.007h15.412V8.604L243.821,8.604z"/>
		</g>
		<g>
			<path d="M272.5,9.604c14.415,0,20.844,6.347,20.844,20.578v7.372c0,9.33-2.968,15.259-9.073,18.126l-2.04,0.958l2.079,0.87
				c6.341,2.652,9.169,8.526,9.169,19.046v14.475c0,3.989,0.093,7.178,1.163,10.392h-12.845c-0.646-1.985-1.061-3.803-1.061-10.526
				V76.153c0-9.062-3.186-12.929-10.65-12.929h-5.093h-1v1v37.197h-12.742V9.604H272.5 M263.993,51.822h1h5.764
				c6.717,0,9.845-3.469,9.845-10.917v-9.248c0-4.572-0.882-10.649-8.506-10.649h-7.103h-1v1v28.815V51.822 M272.5,8.604h-22.249
				v93.816h14.742V64.224h5.093c6.702,0,9.65,3.217,9.65,11.929v14.742c0,7.64,0.535,9.114,1.339,11.526h15.012
				c-1.474-3.484-1.608-6.835-1.608-11.392V76.554c0-9.783-2.413-16.886-9.783-19.969c6.566-3.083,9.648-9.382,9.648-19.031v-7.372
				C294.344,15.708,287.777,8.604,272.5,8.604L272.5,8.604z M264.993,50.822V22.007h7.103c5.228,0,7.506,2.948,7.506,9.649v9.248
				c0,7.506-3.351,9.917-8.845,9.917H264.993L264.993,50.822z"/>
		</g>
		<g>
			<path d="M317.867,9.604v91.816h-12.744V9.604H317.867 M318.867,8.604h-14.744v93.816h14.744V8.604L318.867,8.604z"/>
		</g>
		<g>
			<path d="M350.359,8.533c13.725,0,20.979,7.811,20.979,22.588v8.112h-11.938v-9.051c0-8.47-4.699-10.248-8.641-10.248
				s-8.64,1.778-8.64,10.248v50.661c0,6.711,2.906,10.114,8.64,10.114s8.641-3.403,8.641-10.114V68.441h11.938v11.464
				c0,14.777-7.255,22.588-20.979,22.588s-20.979-7.811-20.979-22.588V31.122C329.38,16.344,336.635,8.533,350.359,8.533
				 M350.359,7.533c-14.476,0-21.979,8.577-21.979,23.588v48.784c0,15.01,7.504,23.588,21.979,23.588
				c14.474,0,21.979-8.578,21.979-23.588V67.441h-13.938v13.402c0,6.701-2.949,9.114-7.641,9.114c-4.69,0-7.64-2.413-7.64-9.114
				V30.183c0-6.702,2.949-9.248,7.64-9.248c4.691,0,7.641,2.546,7.641,9.248v10.051h13.938v-9.112
				C372.339,16.11,364.833,7.533,350.359,7.533L350.359,7.533z"/>
		</g>
		<g>
			<path d="M41.398,126.198v69.497c0,15.2-6.6,22.588-20.177,22.588c-2.346,0-4.124,0-6.104-0.173v-11.43
				c1.357,0.067,2.793,0.067,4.093,0.067c6.354,0,9.443-3.265,9.443-9.98v-70.569H41.398 M42.398,125.198H27.654v71.569
				c0,7.237-3.752,8.98-8.443,8.98c-1.608,0-3.484,0-5.093-0.135v13.403c2.413,0.268,4.424,0.268,7.104,0.268
				c11.125,0,21.177-4.825,21.177-23.588V125.198L42.398,125.198z"/>
		</g>
		<g>
			<path d="M73.623,125.126c13.788,0,21.382,8.022,21.382,22.588v48.785c0,14.566-7.594,22.587-21.382,22.587
				c-13.789,0-21.382-8.021-21.382-22.587v-48.785C52.24,133.148,59.834,125.126,73.623,125.126 M73.623,207.684
				c3.941,0,8.639-1.778,8.639-10.247v-50.661c0-8.47-4.698-10.248-8.639-10.248s-8.639,1.778-8.639,10.248v50.661
				C64.983,205.906,69.682,207.684,73.623,207.684 M73.623,124.126c-14.475,0-22.382,8.577-22.382,23.588v48.785
				c0,15.01,7.907,23.587,22.382,23.587c14.475,0,22.382-8.577,22.382-23.587v-48.785C96.004,132.703,88.097,124.126,73.623,124.126
				L73.623,124.126z M73.623,206.684c-4.691,0-7.639-2.546-7.639-9.247v-50.661c0-6.702,2.948-9.248,7.639-9.248
				c4.691,0,7.639,2.546,7.639,9.248v50.661C81.262,204.138,78.313,206.684,73.623,206.684L73.623,206.684z"/>
		</g>
		<g>
			<path d="M147.806,126.198v70.435c0,14.777-7.254,22.588-20.979,22.588s-20.979-7.811-20.979-22.588v-70.435h12.742v71.373
				c0,6.71,2.907,10.113,8.639,10.113s8.639-3.402,8.639-10.113v-71.373H147.806 M148.806,125.198h-13.938v72.373
				c0,6.702-2.948,9.113-7.639,9.113s-7.639-2.411-7.639-9.113v-72.373h-14.742v71.435c0,15.01,7.505,23.588,21.979,23.588
				c14.475,0,21.979-8.578,21.979-23.588V125.198L148.806,125.198z"/>
		</g>
		<g>
			<path d="M181.102,126.198c14.417,0,20.846,6.347,20.846,20.578v7.372c0,9.33-2.968,15.259-9.073,18.126l-2.041,0.958l2.08,0.87
				c6.34,2.651,9.167,8.525,9.167,19.046v14.475c0,3.988,0.093,7.177,1.164,10.393H190.4c-0.646-1.985-1.062-3.803-1.062-10.526
				v-14.742c0-9.063-3.186-12.929-10.651-12.929h-5.092h-1v1v37.197h-12.742v-91.817H181.102 M172.596,168.416h1h5.763
				c6.626,0,9.847-3.571,9.847-10.918v-9.248c0-4.572-0.882-10.649-8.506-10.649h-7.104h-1v1v28.815V168.416 M181.102,125.198
				h-22.248v93.817h14.742v-38.197h5.092c6.704,0,9.651,3.217,9.651,11.929v14.742c0,7.639,0.535,9.112,1.34,11.526h15.011
				c-1.474-3.485-1.609-6.835-1.609-11.393v-14.475c0-9.783-2.411-16.887-9.781-19.969c6.566-3.083,9.648-9.382,9.648-19.031v-7.372
				C202.947,132.301,196.38,125.198,181.102,125.198L181.102,125.198z M173.596,167.416v-28.815h7.104
				c5.228,0,7.506,2.948,7.506,9.649v9.248c0,7.505-3.352,9.918-8.847,9.918H173.596L173.596,167.416z"/>
		</g>
		<g>
			<path d="M258.367,126.198v91.817h-13.379l-18.161-67.21l-1.966-7.273v7.534v66.95h-11.269v-91.817h16.729l14.944,55.417
				l1.966,7.288v-7.548v-55.156H258.367 M259.367,125.198h-13.135v56.156l-15.145-56.156h-18.495v93.817h13.269v-67.95l18.361,67.95
				h15.145V125.198L259.367,125.198z"/>
		</g>
		<g>
			<path d="M301.797,126.198l14.692,91.817h-12.843l-2.419-16.169l-0.128-0.852h-0.861h-18.094h-0.861l-0.128,0.852l-2.417,16.169
				h-11.504l14.69-91.817H301.797 M282.859,190.262h1.161h14.207h1.161l-0.172-1.148l-7.103-47.445l-0.989-6.605l-0.989,6.605
				l-7.104,47.445L282.859,190.262 M302.649,125.198h-21.577l-15.011,93.817H279.6l2.545-17.021h18.094l2.547,17.021h14.877
				L302.649,125.198L302.649,125.198z M284.021,189.262l7.104-47.445l7.103,47.445H284.021L284.021,189.262z"/>
		</g>
		<g>
			<path d="M338.235,126.198v79.414v1h1h23.259v11.403h-37.002v-91.817H338.235 M339.235,125.198h-14.743v93.817h39.002v-13.403
				h-24.259V125.198L339.235,125.198z"/>
		</g>
	</g>
</g>
<g>
	<defs>
		<polygon id="SVGID_3_" points="53.521,229.908 305.47,-14 502.919,-14 502.919,229.908 		"/>
	</defs>
	<clipPath id="SVGID_4_">
		<use xlink:href="#SVGID_3_"  overflow="visible"/>
	</clipPath>
	<g clip-path="url(#SVGID_4_)">
		<path d="M21.491,48.167h20.237v13.402H21.491v27.474h25.463v13.402H6.749V8.631h40.205v13.402H21.491V48.167z"/>
		<path d="M56.066,8.631h14.742v80.411h24.257v13.402H56.066V8.631z"/>
		<path d="M116.237,48.167h20.237v13.402h-20.237v27.474h25.463v13.402h-40.205V8.631h40.205v13.402h-25.463V48.167z"/>
		<path d="M193.564,67.465v12.463c0,15.01-7.505,23.587-21.979,23.587c-14.474,0-21.979-8.577-21.979-23.587V31.146
			c0-15.01,7.505-23.587,21.979-23.587c14.475,0,21.979,8.577,21.979,23.587v9.113h-13.938V30.208c0-6.701-2.948-9.247-7.639-9.247
			s-7.639,2.546-7.639,9.247v50.659c0,6.701,2.948,9.113,7.639,9.113s7.639-2.412,7.639-9.113V67.465H193.564z"/>
		<path d="M198.252,8.631h45.566v13.402h-15.412v80.411h-14.742V22.033h-15.412V8.631z"/>
		<path d="M281.072,102.444c-0.804-2.412-1.34-3.887-1.34-11.525V76.176c0-8.711-2.948-11.928-9.649-11.928h-5.093v38.195h-14.742
			V8.631h22.247c15.278,0,21.845,7.103,21.845,21.577v7.371c0,9.649-3.082,15.948-9.648,19.031
			c7.371,3.082,9.783,10.185,9.783,19.969v14.474c0,4.557,0.134,7.907,1.608,11.392H281.072z M264.99,22.033v28.814h5.763
			c5.495,0,8.846-2.413,8.846-9.917v-9.247c0-6.701-2.278-9.649-7.505-9.649H264.99z"/>
		<path d="M304.121,8.631h14.742v93.813h-14.742V8.631z"/>
		<path d="M372.334,67.465v12.463c0,15.01-7.505,23.587-21.979,23.587c-14.475,0-21.979-8.577-21.979-23.587V31.146
			c0-15.01,7.505-23.587,21.979-23.587c14.474,0,21.979,8.577,21.979,23.587v9.113h-13.938V30.208c0-6.701-2.948-9.247-7.64-9.247
			c-4.69,0-7.639,2.546-7.639,9.247v50.659c0,6.701,2.948,9.113,7.639,9.113c4.691,0,7.64-2.412,7.64-9.113V67.465H372.334z"/>
		<path d="M14.118,205.635c1.608,0.134,3.484,0.134,5.092,0.134c4.691,0,8.443-1.742,8.443-8.979v-71.565h14.742v70.493
			c0,18.763-10.052,23.587-21.175,23.587c-2.681,0-4.691,0-7.103-0.268V205.635z"/>
		<path d="M51.24,147.74c0-15.01,7.907-23.587,22.381-23.587c14.474,0,22.381,8.577,22.381,23.587v48.782
			c0,15.01-7.907,23.587-22.381,23.587c-14.474,0-22.381-8.577-22.381-23.587V147.74z M65.981,197.46
			c0,6.701,2.948,9.247,7.639,9.247c4.69,0,7.639-2.546,7.639-9.247v-50.659c0-6.701-2.949-9.247-7.639-9.247
			c-4.691,0-7.639,2.546-7.639,9.247V197.46z"/>
		<path d="M119.587,125.225v72.37c0,6.701,2.948,9.113,7.639,9.113c4.69,0,7.639-2.413,7.639-9.113v-72.37h13.938v71.432
			c0,15.01-7.505,23.587-21.979,23.587c-14.474,0-21.979-8.577-21.979-23.587v-71.432H119.587z"/>
		<path d="M189.677,219.037c-0.805-2.412-1.341-3.887-1.341-11.525V192.77c0-8.711-2.948-11.928-9.648-11.928h-5.093v38.195h-14.742
			v-93.813H181.1c15.277,0,21.845,7.103,21.845,21.577v7.371c0,9.649-3.082,15.948-9.649,19.031
			c7.371,3.082,9.783,10.185,9.783,19.969v14.474c0,4.557,0.134,7.907,1.608,11.392H189.677z M173.595,138.626v28.814h5.763
			c5.494,0,8.845-2.413,8.845-9.917v-9.248c0-6.701-2.278-9.649-7.505-9.649H173.595z"/>
		<path d="M225.859,151.09v67.947h-13.268v-93.813h18.494l15.145,56.153v-56.153h13.134v93.813H244.22L225.859,151.09z"/>
		<path d="M317.659,219.037h-14.876l-2.547-17.021h-18.092l-2.547,17.021h-13.535l15.01-93.813h21.577L317.659,219.037z
			 M284.021,189.285h14.206l-7.104-47.442L284.021,189.285z"/>
		<path d="M324.492,125.225h14.742v80.411h24.258v13.402h-39V125.225z"/>
	</g>
</g>
</svg>
