<?xml version="1.0" encoding="utf-8"?>
<!-- Generator: Adobe Illustrator 16.0.0, SVG Export Plug-In . SVG Version: 6.00 Build 0)  -->
<!DOCTYPE svg PUBLIC "-//W3C//DTD SVG 1.1//EN" "http://www.w3.org/Graphics/SVG/1.1/DTD/svg11.dtd">
<svg version="1.1" id="Layer_1" xmlns="http://www.w3.org/2000/svg" xmlns:xlink="http://www.w3.org/1999/xlink" x="0px" y="0px"
	 width="755.833px" height="96.561px" viewBox="0 0 755.833 96.561" enable-background="new 0 0 755.833 96.561"
	 xml:space="preserve">
<g>
	<g>
		<path d="M44.288,2.071v11.403H19.823h-1v1v26.135v1h1h19.238v11.401H19.823h-1v1v27.476v1h1h24.465v11.401H6.081V2.071H44.288
			 M45.288,1.071H5.081v93.816h40.207V81.486H19.823V54.011h20.238V40.609H19.823V14.475h25.465V1.071L45.288,1.071z"/>
	</g>
	<g>
		<path d="M68.14,2.071v79.415v1h1h23.259v11.401H55.397V2.071H68.14 M69.14,1.071H54.397v93.816h39.002V81.486H69.14V1.071
			L69.14,1.071z"/>
	</g>
	<g>
		<path d="M139.034,2.071v11.403H114.57h-1v1v26.135v1h1h19.237v11.401H114.57h-1v1v27.476v1h1h24.464v11.401h-38.205V2.071H139.034
			 M140.034,1.071H99.829v93.816h40.205V81.486H114.57V54.011h20.237V40.609H114.57V14.475h25.464V1.071L140.034,1.071z"/>
	</g>
	<g>
		<path d="M169.918,1c13.725,0,20.979,7.811,20.979,22.588v8.113H178.96v-9.052c0-8.47-4.698-10.248-8.64-10.248
			s-8.64,1.778-8.64,10.248v50.661c0,6.711,2.907,10.113,8.64,10.113s8.64-3.402,8.64-10.113V60.908h11.938v11.464
			c0,14.777-7.255,22.588-20.979,22.588s-20.979-7.811-20.979-22.588V23.588C148.939,8.811,156.194,1,169.918,1 M169.918,0
			c-14.474,0-21.979,8.576-21.979,23.588v48.784c0,15.011,7.506,23.588,21.979,23.588c14.476,0,21.979-8.577,21.979-23.588V59.908
			H177.96v13.402c0,6.7-2.949,9.113-7.64,9.113c-4.689,0-7.64-2.413-7.64-9.113V22.649c0-6.702,2.95-9.248,7.64-9.248
			c4.69,0,7.64,2.546,7.64,9.248v10.052h13.938v-9.113C191.898,8.576,184.394,0,169.918,0L169.918,0z"/>
	</g>
	<g>
		<path d="M241.152,2.071v11.403H226.74h-1v1v79.413h-12.741V14.475v-1h-1h-14.413V2.071H241.152 M242.152,1.071h-45.566v13.403
			h15.413v80.413h14.741V14.475h15.412V1.071L242.152,1.071z"/>
	</g>
	<g>
		<path d="M270.831,2.071c14.415,0,20.844,6.347,20.844,20.578v7.372c0,9.329-2.968,15.259-9.073,18.126l-2.04,0.958l2.079,0.87
			c6.341,2.651,9.169,8.525,9.169,19.046v14.475c0,3.988,0.093,7.178,1.163,10.392h-12.845c-0.646-1.985-1.061-3.802-1.061-10.526
			V68.619c0-9.062-3.186-12.928-10.65-12.928h-5.093h-1v1v37.196h-12.742V2.071H270.831 M262.324,44.289h1h5.764
			c6.624,0,9.845-3.571,9.845-10.918v-9.248c0-4.571-0.882-10.648-8.506-10.648h-7.103h-1v1v28.814V44.289 M270.831,1.071h-22.249
			v93.816h14.742V56.691h5.093c6.702,0,9.65,3.217,9.65,11.928v14.742c0,7.641,0.535,9.114,1.339,11.526h15.012
			c-1.474-3.484-1.608-6.835-1.608-11.392V69.021c0-9.783-2.413-16.887-9.783-19.969c6.566-3.084,9.648-9.383,9.648-19.031v-7.372
			C292.674,8.175,286.108,1.071,270.831,1.071L270.831,1.071z M263.324,43.289V14.475h7.103c5.228,0,7.506,2.947,7.506,9.648v9.248
			c0,7.506-3.351,9.918-8.845,9.918H263.324L263.324,43.289z"/>
	</g>
	<g>
		<path d="M316.198,2.071v91.816h-12.745V2.071H316.198 M317.198,1.071h-14.745v93.816h14.745V1.071L317.198,1.071z"/>
	</g>
	<g>
		<path d="M348.69,1c13.725,0,20.979,7.811,20.979,22.588v8.113h-11.938v-9.052c0-8.47-4.699-10.248-8.641-10.248
			s-8.639,1.778-8.639,10.248v50.661c0,6.711,2.906,10.113,8.639,10.113c5.734,0,8.641-3.402,8.641-10.113V60.908h11.938v11.464
			c0,14.777-7.254,22.588-20.979,22.588s-20.98-7.811-20.98-22.588V23.588C327.71,8.811,334.966,1,348.69,1 M348.69,0
			c-14.477,0-21.98,8.576-21.98,23.588v48.784c0,15.011,7.504,23.588,21.98,23.588c14.473,0,21.979-8.577,21.979-23.588V59.908
			h-13.938v13.402c0,6.7-2.949,9.113-7.641,9.113c-4.689,0-7.639-2.413-7.639-9.113V22.649c0-6.702,2.949-9.248,7.639-9.248
			c4.691,0,7.641,2.546,7.641,9.248v10.052h13.938v-9.113C370.669,8.576,363.163,0,348.69,0L348.69,0z"/>
	</g>
</g>
<g>
	<path d="M402.892,81.954c1.607,0.135,3.484,0.135,5.092,0.135c4.691,0,8.443-1.742,8.443-8.98V1.543h14.742v70.493
		c0,18.764-10.051,23.588-21.174,23.588c-2.682,0-4.691,0-7.104-0.268V81.954z"/>
	<path d="M440.015,24.059c0-15.011,7.906-23.588,22.381-23.588c14.473,0,22.381,8.577,22.381,23.588V72.84
		c0,15.01-7.908,23.588-22.381,23.588c-14.475,0-22.381-8.578-22.381-23.588V24.059z M454.755,73.78
		c0,6.699,2.949,9.246,7.641,9.246c4.689,0,7.639-2.547,7.639-9.246V23.12c0-6.701-2.949-9.247-7.639-9.247
		c-4.691,0-7.641,2.546-7.641,9.247V73.78z"/>
	<path d="M508.36,1.543v72.37c0,6.701,2.949,9.113,7.641,9.113c4.689,0,7.639-2.412,7.639-9.113V1.543h13.938v71.432
		c0,15.01-7.506,23.586-21.979,23.586c-14.475,0-21.98-8.576-21.98-23.586V1.543H508.36z"/>
	<path d="M578.45,95.356c-0.805-2.412-1.34-3.887-1.34-11.525V69.088c0-8.711-2.949-11.928-9.648-11.928h-5.094v38.195h-14.742
		V1.543h22.248c15.277,0,21.844,7.104,21.844,21.577v7.371c0,9.65-3.082,15.949-9.648,19.031c7.371,3.082,9.783,10.186,9.783,19.969
		v14.473c0,4.557,0.133,7.908,1.607,11.393H578.45z M562.368,14.945v28.813h5.764c5.494,0,8.844-2.412,8.844-9.916v-9.248
		c0-6.702-2.277-9.649-7.504-9.649H562.368z"/>
	<path d="M614.634,27.409v67.947h-13.268V1.543h18.494l15.145,56.153V1.543h13.133v93.813h-15.145L614.634,27.409z"/>
	<path d="M706.433,95.356h-14.875l-2.547-17.021h-18.092l-2.547,17.021h-13.535l15.01-93.813h21.576L706.433,95.356z
		 M672.794,65.604h14.207l-7.104-47.443L672.794,65.604z"/>
	<path d="M713.267,1.543h14.742v80.411h24.258v13.402h-39V1.543z"/>
</g>
</svg>
