<?xml version="1.0" encoding="utf-8"?>
<!-- Generator: Adobe Illustrator 16.0.0, SVG Export Plug-In . SVG Version: 6.00 Build 0)  -->
<!DOCTYPE svg PUBLIC "-//W3C//DTD SVG 1.1//EN" "http://www.w3.org/Graphics/SVG/1.1/DTD/svg11.dtd">
<svg version="1.1" id="Layer_1" xmlns="http://www.w3.org/2000/svg" xmlns:xlink="http://www.w3.org/1999/xlink" x="0px" y="0px"
	 width="360px" height="500px" viewBox="-28.833 0 360 500" enable-background="new -28.833 0 360 500" xml:space="preserve">
<g>
	<path fill="#252B2F" d="M159.202,17.245c50.384,0,90.832,8.516,119.218,29.804c27.675,20.579,46.125,53.222,46.125,100.057
		c0,91.542-69.543,136.248-138.377,145.474c-10.645,0.709-24.127,0.709-31.933,0l-52.513-13.483v111.411
		c0,60.318,6.387,63.867,70.253,68.125v19.869H-20.333v-19.869c56.77-4.258,62.447-9.936,62.447-68.834V105.948
		c0-62.447-5.677-65.286-58.189-68.833v-19.87H159.202z M101.723,255.679c9.225,3.548,28.385,8.516,51.803,8.516
		c46.126,0,102.896-24.837,102.896-114.96c0-76.64-48.964-109.282-107.153-109.282c-19.87,0-34.771,3.548-39.739,8.516
		c-5.677,4.967-7.806,13.483-7.806,33.353V255.679z"/>
</g>
</svg>
