<?xml version="1.0" encoding="utf-8"?>
<!-- Generator: Adobe Illustrator 16.0.0, SVG Export Plug-In . SVG Version: 6.00 Build 0)  -->
<!DOCTYPE svg PUBLIC "-//W3C//DTD SVG 1.1//EN" "http://www.w3.org/Graphics/SVG/1.1/DTD/svg11.dtd">
<svg version="1.1" id="Layer_1" xmlns="http://www.w3.org/2000/svg" xmlns:xlink="http://www.w3.org/1999/xlink" x="0px" y="0px"
	 width="309.049px" height="500px" viewBox="0 0 309.049 500" enable-background="new 0 0 309.049 500" xml:space="preserve">
<g>
	<path fill="#314551" d="M-1017.324,481.027l98.113-462.056h62.18l98.689,462.056h-61.039l-21.107-116.367h-94.121l-22.249,116.367
		H-1017.324z M-926.055,318.453h77.006l-38.787-208.209L-926.055,318.453z"/>
</g>
<g>
	<path fill="#314551" d="M-820.733,13.873v-461.51h114.523c27.723,0,49.854,5.044,66.375,15.096
		c16.523,10.074,28.576,24.605,36.178,43.592c7.6,18.995,11.402,41.978,11.402,68.941c0,24.314-4.275,45.393-12.824,63.242
		c-8.545,17.857-21.178,31.621-37.889,41.308c-16.719,9.688-37.604,14.53-62.677,14.53h-50.705v214.8H-820.733z M-756.349-247.078
		h29.627c18.605,0,33.236-2.083,43.875-6.265c10.625-4.174,18.23-11.488,22.791-21.941c4.553-10.446,6.836-25.155,6.836-44.158
		c0-22.023-1.621-38.927-4.846-50.705c-3.23-11.771-9.971-19.939-20.227-24.5c-10.254-4.561-26.205-6.83-47.864-6.83h-30.192
		V-247.078z"/>
</g>
<g>
	<path fill="#314551" d="M-408.824,462.029c-32.073,0-56.967-6.705-74.672-20.135c-17.721-13.428-30.021-31.51-36.92-54.264
		c-6.906-22.74-10.347-48.094-10.347-76.066V151.59c0-30.572,3.44-57.24,10.347-79.99c6.899-22.742,19.199-40.356,36.92-52.861
		C-465.791,6.249-440.897,0-408.824,0c28.333,0,50.8,5.23,67.403,15.664c16.588,10.449,28.523,25.364,35.795,44.757
		c7.271,19.39,10.904,42.694,10.904,69.917v35.791h-59.848v-31.873c0-16.785-0.84-31.609-2.52-44.476
		c-1.676-12.87-6.244-22.837-13.703-29.922c-7.461-7.085-19.955-10.632-37.474-10.632c-17.899,0-30.959,3.831-39.154,11.468
		c-8.211,7.648-13.521,18.455-15.945,32.435c-2.426,13.995-3.635,30.305-3.635,48.953v179.55c0,22.75,1.863,40.744,5.592,53.973
		c3.726,13.242,9.879,22.658,18.458,28.25c8.579,5.598,20.138,8.393,34.685,8.393c17.146,0,29.45-3.816,36.915-11.465
		c7.455-7.641,12.115-18.188,13.984-31.605c1.863-13.426,2.797-29.082,2.797-46.988v-33.564h59.848v33.564
		c0,27.605-3.348,51.934-10.068,72.998c-6.705,21.074-18.275,37.482-34.678,49.229
		C-355.876,456.156-378.995,462.029-408.824,462.029z"/>
</g>
<g>
	<path fill="#314551" d="M893.971,644.461l-59.459-364.864h42.343l39.188,262.159l49.103-260.807h36.033l49.545,262.154
		l38.289-263.507h41.442l-58.557,364.864h-36.939l-50.897-270.274L932.71,644.461H893.971z"/>
</g>
<g>
	<path fill="#304551" d="M33.842,480.814V19.184h108.853c37.614,0,66.965,5.129,88.052,15.387
		c21.086,10.257,36.091,26.03,45.022,47.302c8.922,21.281,13.393,48.255,13.393,80.929v168.695c0,33.432-4.471,61.259-13.393,83.49
		c-8.932,22.23-23.749,38.759-44.455,49.58c-20.711,10.829-49.108,16.248-85.199,16.248H33.842z M118.188,422.114h25.647
		c19.375,0,33.242-3.424,41.604-10.266c8.35-6.834,13.48-16.806,15.384-29.916c1.899-13.109,2.854-29.156,2.854-48.156V157.101
		c0-18.609-1.337-33.625-3.989-45.023c-2.662-11.398-8.178-19.75-16.529-25.076c-8.361-5.318-21.852-7.978-40.463-7.978h-24.507
		V422.114z"/>
</g>
</svg>
