<?xml version="1.0" encoding="utf-8"?>
<!-- Generator: Adobe Illustrator 16.0.0, SVG Export Plug-In . SVG Version: 6.00 Build 0)  -->
<!DOCTYPE svg PUBLIC "-//W3C//DTD SVG 1.1//EN" "http://www.w3.org/Graphics/SVG/1.1/DTD/svg11.dtd">
<svg version="1.1" id="Layer_1" xmlns="http://www.w3.org/2000/svg" xmlns:xlink="http://www.w3.org/1999/xlink" x="0px" y="0px"
	 width="504px" height="504px" viewBox="-94 -2 504 504" enable-background="new -94 -2 504 504" xml:space="preserve">
<g>
	<path fill="#252B2F" d="M127.19,19.244c90.171,0,156.912,18.46,200.933,60.352c34.79,34.081,59.642,85.91,59.642,152.651
		c0,85.2-32.66,148.393-87.331,189.572C247.182,463,176.892,480.75,89.56,480.75H-78.713v-19.171
		c61.061-4.26,66.74-8.52,66.74-68.87V107.995c0-61.061-5.68-63.899-60.351-68.161v-20.59H127.19z M49.089,387.738
		c0,53.961,23.43,67.451,75.261,67.451c132.771,0,193.832-99.401,193.832-213.002c0-73.131-26.979-136.322-83.78-169.692
		c-31.95-20.59-73.131-29.109-120.701-29.109c-29.82,0-48.28,3.55-55.381,8.52c-7.1,4.97-9.229,12.78-9.229,40.471L49.089,387.738
		L49.089,387.738z"/>
</g>
</svg>
