<?xml version="1.0" encoding="utf-8"?>
<!-- Generator: Adobe Illustrator 16.0.0, SVG Export Plug-In . SVG Version: 6.00 Build 0)  -->
<!DOCTYPE svg PUBLIC "-//W3C//DTD SVG 1.1//EN" "http://www.w3.org/Graphics/SVG/1.1/DTD/svg11.dtd">
<svg version="1.1" id="Layer_1" xmlns="http://www.w3.org/2000/svg" xmlns:xlink="http://www.w3.org/1999/xlink" x="0px" y="0px"
	 width="504px" height="504px" viewBox="-98.5 -2 504 504" enable-background="new -98.5 -2 504 504" xml:space="preserve">
<path fill="#252B2F" d="M301.487,393.473C257.454,273.76,211.357,143.04,168.701,24.703l-21.327,6.192L4.957,392.097
	c-24.081,60.544-33.712,64.673-77.058,70.865v19.264H77.197v-19.264c-51.601-4.816-57.792-11.697-42.655-55.04
	c8.942-28.897,19.263-57.795,30.271-88.755h146.545c15.138,41.971,28.897,79.122,37.841,105.953
	c8.943,26.833,2.753,32.338-40.593,37.842v19.264h168.562v-19.264C332.446,458.834,323.503,452.641,301.487,393.473z
	 M75.133,289.586c20.64-56.417,42.656-116.272,64.672-175.441h1.375l60.545,175.441H75.133z"/>
</svg>
