<?xml version="1.0" encoding="utf-8"?>
<!-- Generator: Adobe Illustrator 16.0.0, SVG Export Plug-In . SVG Version: 6.00 Build 0)  -->
<!DOCTYPE svg PUBLIC "-//W3C//DTD SVG 1.1//EN" "http://www.w3.org/Graphics/SVG/1.1/DTD/svg11.dtd">
<svg version="1.1" id="Layer_1" xmlns="http://www.w3.org/2000/svg" xmlns:xlink="http://www.w3.org/1999/xlink" x="0px" y="0px"
	 width="488px" height="504px" viewBox="-99.5 -2 488 504" enable-background="new -99.5 -2 488 504" xml:space="preserve">
<g>
	<path fill="#252B2F" d="M159.202,17.245c50.384,0,90.832,8.517,119.218,29.804c27.675,20.579,46.125,53.223,46.125,100.058
		c0,91.542-69.543,136.248-138.377,145.474c-10.646,0.709-24.127,0.709-31.934,0l-52.513-13.482v111.411
		c0,60.317,6.387,63.866,70.253,68.125v19.869H-20.333v-19.869c56.77-4.259,62.446-9.937,62.446-68.835V105.948
		c0-62.447-5.677-65.286-58.188-68.833v-19.87H159.202z M101.723,255.679c9.225,3.548,28.385,8.516,51.803,8.516
		c46.126,0,102.896-24.837,102.896-114.96c0-76.64-48.964-109.282-107.153-109.282c-19.87,0-34.771,3.548-39.739,8.517
		c-5.677,4.967-7.806,13.482-7.806,33.353L101.723,255.679L101.723,255.679z"/>
</g>
</svg>
