<?xml version="1.0" encoding="utf-8"?>
<!-- Generator: Adobe Illustrator 16.0.0, SVG Export Plug-In . SVG Version: 6.00 Build 0)  -->
<!DOCTYPE svg PUBLIC "-//W3C//DTD SVG 1.1//EN" "http://www.w3.org/Graphics/SVG/1.1/DTD/svg11.dtd">
<svg version="1.1" id="Layer_1" xmlns="http://www.w3.org/2000/svg" xmlns:xlink="http://www.w3.org/1999/xlink" x="0px" y="0px"
	 width="432px" height="500px" viewBox="-64.833 0 432 500" enable-background="new -64.833 0 432 500" xml:space="preserve">
<g>
	<path fill="#252B2F" d="M356.572,354.181c-9.487,31.176-26.429,82-38.628,104.364c-18.975,4.743-76.578,18.297-124.692,18.297
		c-170.775,0-245.32-117.238-245.32-224.312c0-142.313,109.106-236.511,262.94-236.511c54.891,0,101.65,14.908,119.948,18.297
		c5.423,37.95,10.166,66.413,14.232,103.685l-21.009,4.743C305.747,69.557,263.052,41.772,193.252,41.772
		c-110.461,0-169.42,94.876-169.42,197.205c0,126.048,72.512,212.114,174.163,212.114c67.091,0,103.686-37.272,138.248-104.361
		L356.572,354.181z"/>
</g>
</svg>
