<?xml version="1.0" encoding="utf-8"?>
<!-- Generator: Adobe Illustrator 16.0.0, SVG Export Plug-In . SVG Version: 6.00 Build 0)  -->
<!DOCTYPE svg PUBLIC "-//W3C//DTD SVG 1.1//EN" "http://www.w3.org/Graphics/SVG/1.1/DTD/svg11.dtd">
<svg version="1.1" id="Layer_1" xmlns="http://www.w3.org/2000/svg" xmlns:xlink="http://www.w3.org/1999/xlink" x="0px" y="0px"
	 width="720px" height="500px" viewBox="-152.461 0 720 500" enable-background="new -152.461 0 720 500" xml:space="preserve">
<g>
	<path fill="#252B2F" d="M533.039,35.23c-48.373,6.31-54.684,11.918-75.715,70.106c-16.125,44.868-58.188,177.369-115.676,372.966
		h-21.732c-38.559-112.17-86.932-247.476-122.687-349.13h-1.402c-39.259,123.388-78.519,236.259-114.273,349.13H59.821
		C22.664,352.111-16.595,228.724-55.154,103.934C-72.68,46.447-83.197,40.839-125.961,35.23V15.6H44.397v19.63
		C-6.781,41.54-8.182,47.148,2.334,82.903c27.341,94.644,54.683,189.287,85.53,288.838h1.402
		c37.156-119.181,77.818-234.856,113.572-349.13h20.331c39.259,114.975,79.921,228.547,122.687,349.13h1.402
		c29.443-93.241,68.002-230.65,79.22-280.426c9.815-42.064,7.011-49.775-48.374-56.085V15.6h154.936V35.23z"/>
</g>
</svg>
