<?xml version="1.0" encoding="utf-8"?>
<!-- Generator: Adobe Illustrator 16.0.0, SVG Export Plug-In . SVG Version: 6.00 Build 0)  -->
<!DOCTYPE svg PUBLIC "-//W3C//DTD SVG 1.1//EN" "http://www.w3.org/Graphics/SVG/1.1/DTD/svg11.dtd">
<svg version="1.1" id="Layer_1" xmlns="http://www.w3.org/2000/svg" xmlns:xlink="http://www.w3.org/1999/xlink" x="0px" y="0px"
	 width="374.722px" height="374.87px" viewBox="0 0 374.722 374.87" enable-background="new 0 0 374.722 374.87"
	 xml:space="preserve">
<path fill-rule="evenodd" clip-rule="evenodd" fill="#27AAE1" d="M185.796,374.59c-56.468,0-112.94-0.334-169.402,0.26
	C3.917,374.98-0.05,371.493,0,358.713c0.45-113.893,0.444-227.786,0.001-341.678C-0.046,4.657,3.289,0.155,15.976,0.273
	c43.537,0.408,87.082-0.205,130.625-0.252c70.825-0.079,141.649,0.111,212.472-0.154c10.389-0.039,15.695,2.156,15.649,14.22
	c-0.443,114.847-0.564,229.696-0.276,344.543c0.032,12.517-3.724,16.375-16.378,16.236
	C300.651,374.237,243.22,374.59,185.796,374.59z M159.536,258.925c9.111-5.279,17.2-8.972,24.169-14.166
	c50.583-37.697,100.968-75.663,151.302-113.693c2.984-2.255,4.995-5.799,7.458-8.744c-0.585-1.369-1.171-2.739-1.757-4.107
	c-9.639,0.754-19.465,0.557-28.886,2.415c-66.416,13.102-132.748,26.625-199.106,40.02c-7.854,1.584-16.259,1.935-23.441,5.072
	c-16.994,7.421-33.468,16.051-49.984,24.522c-2.552,1.309-4.209,4.364-6.281,6.613c2.533,1.659,5.085,4.769,7.594,4.734
	c12.313-0.169,24.656-0.796,36.912-2.026c7.15-0.716,13.36-0.657,12.142,8.585c-2.245,17.052,8.209,17.931,20.174,16.333
	c14.921-1.989,29.737-4.771,46.852-7.583C157.584,230.156,158.406,242.26,159.536,258.925z"/>
<path fill-rule="evenodd" clip-rule="evenodd" fill="#FFFFFF" d="M159.536,258.925c-1.13-16.665-1.952-28.77-2.853-42.024
	c-17.115,2.812-31.931,5.594-46.852,7.583c-11.965,1.598-22.419,0.719-20.174-16.333c1.218-9.242-4.991-9.301-12.142-8.585
	c-12.256,1.23-24.599,1.857-36.912,2.026c-2.509,0.034-5.061-3.075-7.594-4.734c2.071-2.249,3.729-5.305,6.281-6.613
	c16.516-8.472,32.99-17.101,49.984-24.522c7.183-3.137,15.587-3.488,23.441-5.072c66.358-13.395,132.69-26.918,199.106-40.02
	c9.421-1.858,19.247-1.66,28.886-2.415c0.586,1.369,1.172,2.739,1.757,4.107c-2.463,2.945-4.474,6.488-7.458,8.744
	c-50.334,38.03-100.719,75.996-151.302,113.693C176.736,249.954,168.647,253.646,159.536,258.925z M309.834,134.706
	c-0.463-1.537-0.926-3.074-1.387-4.611c-0.949,0-1.932-0.163-2.845,0.022c-65.774,13.342-131.557,26.663-197.282,40.253
	c-2.681,0.555-6.647,3.433-6.926,5.622c-1.409,11.072-1.796,22.274-2.847,37.995c19.429-10.93,35.405-19.979,51.445-28.905
	c5.311-2.956,10.513-6.541,16.239-8.247C214.037,162.581,261.952,148.699,309.834,134.706z M300.297,146.205
	c-39.401,11.941-83.365,25.044-127.087,38.905c-3.772,1.196-8.446,7.408-8.437,11.278c0.041,15.37,1.775,30.735,3.047,48.399
	C214.754,209.862,259.456,176.597,300.297,146.205z M111.503,217.067c44.175-10.373,44.175-10.373,42.61-22.573
	C140.696,201.601,127.49,208.597,111.503,217.067z M93.563,173.194c-13.779,7.756-23.962,13.486-34.143,19.218
	C71.403,189.444,88.465,195.962,93.563,173.194z"/>
<path fill-rule="evenodd" clip-rule="evenodd" fill="#27AAE1" d="M309.834,134.706c-47.883,13.994-95.798,27.875-143.603,42.129
	c-5.726,1.706-10.928,5.291-16.239,8.247c-16.04,8.927-32.016,17.976-51.445,28.905c1.05-15.721,1.438-26.923,2.847-37.995
	c0.279-2.189,4.245-5.067,6.926-5.622c65.725-13.59,131.507-26.911,197.282-40.253c0.913-0.185,1.896-0.022,2.845-0.022
	C308.909,131.631,309.372,133.168,309.834,134.706z"/>
<path fill-rule="evenodd" clip-rule="evenodd" fill="#27AAE1" d="M300.297,146.205c-40.842,30.393-85.543,63.657-132.477,98.583
	c-1.271-17.664-3.006-33.029-3.047-48.399c-0.01-3.87,4.664-10.082,8.437-11.278C216.932,171.249,260.896,158.146,300.297,146.205z"
	/>
<path fill-rule="evenodd" clip-rule="evenodd" fill="#27AAE1" d="M111.503,217.067c15.986-8.47,29.192-15.466,42.61-22.573
	C155.678,206.694,155.678,206.694,111.503,217.067z"/>
<path fill-rule="evenodd" clip-rule="evenodd" fill="#27AAE1" d="M93.563,173.194c-5.098,22.769-22.16,16.25-34.143,19.218
	C69.601,186.68,79.784,180.95,93.563,173.194z"/>
</svg>
