<?xml version="1.0" encoding="utf-8"?>
<!-- Generator: Adobe Illustrator 16.0.0, SVG Export Plug-In . SVG Version: 6.00 Build 0)  -->
<!DOCTYPE svg PUBLIC "-//W3C//DTD SVG 1.1//EN" "http://www.w3.org/Graphics/SVG/1.1/DTD/svg11.dtd">
<svg version="1.1" id="Layer_1" xmlns="http://www.w3.org/2000/svg" xmlns:xlink="http://www.w3.org/1999/xlink" x="0px" y="0px"
	 width="1700.942px" height="374.87px" viewBox="0 0 1700.942 374.87" enable-background="new 0 0 1700.942 374.87"
	 xml:space="preserve">
<path fill-rule="evenodd" clip-rule="evenodd" fill="#F05323" d="M185.796,374.59c-56.468,0-112.94-0.334-169.402,0.26
	C3.917,374.98-0.05,371.493,0,358.713c0.45-113.893,0.444-227.786,0.001-341.678C-0.046,4.657,3.289,0.155,15.976,0.273
	c43.537,0.408,87.082-0.205,130.625-0.252c70.825-0.079,141.649,0.111,212.472-0.154c10.389-0.039,15.695,2.156,15.649,14.22
	c-0.443,114.847-0.564,229.696-0.276,344.543c0.032,12.517-3.724,16.375-16.378,16.236
	C300.651,374.237,243.22,374.59,185.796,374.59z M159.536,258.925c9.111-5.279,17.2-8.972,24.169-14.166
	c50.583-37.697,100.968-75.663,151.302-113.693c2.984-2.255,4.995-5.799,7.458-8.744c-0.585-1.369-1.171-2.739-1.757-4.107
	c-9.639,0.754-19.465,0.557-28.886,2.415c-66.416,13.102-132.748,26.625-199.106,40.02c-7.854,1.584-16.259,1.935-23.441,5.072
	c-16.994,7.421-33.468,16.051-49.984,24.522c-2.552,1.309-4.209,4.364-6.281,6.613c2.533,1.659,5.085,4.769,7.594,4.734
	c12.313-0.169,24.656-0.796,36.912-2.026c7.15-0.716,13.36-0.657,12.142,8.585c-2.245,17.052,8.209,17.931,20.174,16.333
	c14.921-1.989,29.737-4.771,46.852-7.583C157.584,230.156,158.406,242.26,159.536,258.925z"/>
<path fill-rule="evenodd" clip-rule="evenodd" fill="#FFFFFF" d="M159.536,258.925c-1.13-16.665-1.952-28.77-2.853-42.024
	c-17.115,2.812-31.931,5.594-46.852,7.583c-11.965,1.598-22.419,0.719-20.174-16.333c1.218-9.242-4.991-9.301-12.142-8.585
	c-12.256,1.23-24.599,1.857-36.912,2.026c-2.509,0.034-5.061-3.075-7.594-4.734c2.071-2.249,3.729-5.305,6.281-6.613
	c16.516-8.472,32.99-17.101,49.984-24.522c7.183-3.137,15.587-3.488,23.441-5.072c66.358-13.395,132.69-26.918,199.106-40.02
	c9.421-1.858,19.247-1.66,28.886-2.415c0.586,1.369,1.172,2.739,1.757,4.107c-2.463,2.945-4.474,6.488-7.458,8.744
	c-50.334,38.03-100.719,75.996-151.302,113.693C176.736,249.954,168.647,253.646,159.536,258.925z M309.834,134.706
	c-0.463-1.537-0.926-3.074-1.387-4.611c-0.949,0-1.932-0.163-2.845,0.022c-65.774,13.342-131.557,26.663-197.282,40.253
	c-2.681,0.555-6.647,3.433-6.926,5.622c-1.409,11.072-1.796,22.274-2.847,37.995c19.429-10.93,35.405-19.979,51.445-28.905
	c5.311-2.956,10.513-6.541,16.239-8.247C214.037,162.581,261.952,148.699,309.834,134.706z M300.297,146.205
	c-39.401,11.941-83.365,25.044-127.087,38.905c-3.772,1.196-8.446,7.408-8.437,11.278c0.041,15.37,1.775,30.735,3.047,48.399
	C214.754,209.862,259.456,176.597,300.297,146.205z M111.503,217.067c44.175-10.373,44.175-10.373,42.61-22.573
	C140.696,201.601,127.49,208.597,111.503,217.067z M93.563,173.194c-13.779,7.756-23.962,13.486-34.143,19.218
	C71.403,189.444,88.465,195.962,93.563,173.194z"/>
<path fill-rule="evenodd" clip-rule="evenodd" fill="#F05323" d="M309.834,134.706c-47.883,13.994-95.798,27.875-143.603,42.129
	c-5.726,1.706-10.928,5.291-16.239,8.247c-16.04,8.927-32.016,17.976-51.445,28.905c1.05-15.721,1.438-26.923,2.847-37.995
	c0.279-2.189,4.245-5.067,6.926-5.622c65.725-13.59,131.507-26.911,197.282-40.253c0.913-0.185,1.896-0.022,2.845-0.022
	C308.909,131.631,309.372,133.168,309.834,134.706z"/>
<path fill-rule="evenodd" clip-rule="evenodd" fill="#F05323" d="M300.297,146.205c-40.842,30.393-85.543,63.657-132.477,98.583
	c-1.271-17.664-3.006-33.029-3.047-48.399c-0.01-3.87,4.664-10.082,8.437-11.278C216.932,171.249,260.896,158.146,300.297,146.205z"
	/>
<path fill-rule="evenodd" clip-rule="evenodd" fill="#F05323" d="M111.503,217.067c15.986-8.47,29.192-15.466,42.61-22.573
	C155.678,206.694,155.678,206.694,111.503,217.067z"/>
<path fill-rule="evenodd" clip-rule="evenodd" fill="#F05323" d="M93.563,173.194c-5.098,22.769-22.16,16.25-34.143,19.218
	C69.601,186.68,79.784,180.95,93.563,173.194z"/>
<g>
	<path fill="#F05323" d="M483.112,266.456h-29.439V96.359h29.439V266.456z"/>
	<path fill="#F05323" d="M519.445,266.456V96.359h58.295c19.238,0,33.88,3.855,43.928,11.565c10.048,7.711,15.07,19.2,15.07,34.463
		c0,7.789-2.103,14.798-6.31,21.029c-4.206,6.232-10.356,11.059-18.458,14.487c9.19,2.492,16.298,7.185,21.321,14.077
		c5.023,6.894,7.534,15.169,7.534,24.825c0,15.966-5.12,28.232-15.362,36.8c-10.241,8.567-24.902,12.85-43.984,12.85H519.445z
		 M549.001,167.973h28.974c9.189,0,16.375-2.084,21.554-6.251c5.18-4.165,7.77-10.065,7.77-17.699
		c0-8.412-2.396-14.486-7.187-18.225c-4.789-3.738-12.246-5.607-22.372-5.607h-28.738V167.973z M549.001,189.702v53.157h32.828
		c9.268,0,16.513-2.297,21.729-6.894c5.219-4.596,7.827-10.982,7.827-19.159c0-17.68-9.035-26.714-27.104-27.104H549.001z"/>
	<path fill="#F05323" d="M765.596,226.852h-65.891l-13.785,39.604h-30.726L719.45,96.359h26.52l64.37,170.096h-30.842
		L765.596,226.852z M708.001,203.02H757.3l-24.648-70.563L708.001,203.02z"/>
	<path fill="#F05323" d="M938.497,120.191h-53.038v146.264h-29.324V120.191h-52.57V96.359h134.933V120.191z"/>
	<path fill="#F05323" d="M1129.272,120.191h-53.039v146.264h-29.321V120.191h-52.572V96.359h134.933V120.191z"/>
	<path fill="#F05323" d="M1207.428,165.986c-3.738-0.623-7.594-0.934-11.566-0.934c-13.006,0-21.769,4.984-26.286,14.953v86.45
		h-28.387V140.051h27.103l0.701,14.136c6.854-10.981,16.355-16.473,28.507-16.473c4.049,0,7.397,0.545,10.046,1.636
		L1207.428,165.986z"/>
	<path fill="#F05323" d="M1297.382,266.456c-1.245-2.413-2.335-6.348-3.271-11.8c-9.034,9.425-20.093,14.138-33.178,14.138
		c-12.695,0-23.053-3.622-31.076-10.865c-8.021-7.243-12.032-16.198-12.032-26.87c0-13.474,5.003-23.813,15.012-31.018
		c10.008-7.202,24.319-10.806,42.935-10.806h17.405v-8.295c0-6.543-1.83-11.779-5.489-15.712c-3.662-3.932-9.23-5.9-16.707-5.9
		c-6.464,0-11.76,1.618-15.888,4.848c-4.128,3.232-6.19,7.342-6.19,12.325h-28.39c0-6.932,2.296-13.416,6.892-19.451
		c4.596-6.034,10.846-10.766,18.75-14.194c7.905-3.427,16.727-5.141,26.461-5.141c14.8,0,26.599,3.721,35.399,11.158
		c8.801,7.438,13.318,17.894,13.552,31.367v57.012c0,11.372,1.597,20.443,4.789,27.22v1.985H1297.382z M1266.191,246.012
		c5.608,0,10.885-1.361,15.829-4.089c4.946-2.726,8.666-6.385,11.157-10.982v-23.832h-15.304c-10.514,0-18.419,1.831-23.715,5.491
		c-5.296,3.661-7.944,8.839-7.944,15.537c0,5.452,1.811,9.797,5.433,13.026C1255.267,244.396,1260.117,246.012,1266.191,246.012z"/>
	<path fill="#F05323" d="M1394.115,230.474l26.754-90.423h29.322l-43.811,126.404h-24.649l-44.159-126.404h29.439L1394.115,230.474z
		"/>
	<path fill="#F05323" d="M1522.038,268.793c-17.99,0-32.574-5.667-43.75-16.998c-11.177-11.332-16.766-26.422-16.766-45.27v-3.506
		c0-12.616,2.436-23.892,7.303-33.82c4.867-9.931,11.701-17.659,20.502-23.191c8.802-5.529,18.615-8.295,29.441-8.295
		c17.212,0,30.51,5.492,39.894,16.473c9.387,10.981,14.079,26.519,14.079,46.613v11.448h-82.596
		c0.857,10.438,4.342,18.692,10.456,24.769c6.113,6.074,13.806,9.111,23.073,9.111c13.006,0,23.599-5.257,31.776-15.771
		l15.304,14.603c-5.062,7.555-11.819,13.417-20.27,17.582S1532.553,268.793,1522.038,268.793z M1518.651,160.496
		c-7.788,0-14.077,2.728-18.868,8.179c-4.79,5.451-7.847,13.045-9.171,22.781h54.091v-2.104c-0.623-9.502-3.153-16.686-7.595-21.555
		C1532.67,162.932,1526.516,160.496,1518.651,160.496z"/>
	<path fill="#F05323" d="M1624.961,266.456h-28.39V87.013h28.39V266.456z"/>
</g>
</svg>
