<?xml version="1.0" encoding="utf-8"?>
<!-- Generator: Adobe Illustrator 16.0.0, SVG Export Plug-In . SVG Version: 6.00 Build 0)  -->
<!DOCTYPE svg PUBLIC "-//W3C//DTD SVG 1.1//EN" "http://www.w3.org/Graphics/SVG/1.1/DTD/svg11.dtd">
<svg version="1.1" xmlns="http://www.w3.org/2000/svg" xmlns:xlink="http://www.w3.org/1999/xlink" x="0px" y="0px"
	 width="356.667px" height="500px" viewBox="0 0 356.667 500" enable-background="new 0 0 356.667 500" xml:space="preserve">
<g id="OBJECTS">
	<g>
		<g>
			<ellipse fill="#FFF1B1" cx="213.153" cy="433.142" rx="126.873" ry="13.216"/>
		</g>
		<g>
			<g>
				<path fill="#3F340C" d="M257.987,218.622l-20.309,193.629c-0.783,7.461-7.074,13.126-14.574,13.126h-90.9
					c-7.457,0-13.725-5.603-14.561-13.012L95.792,218.622H257.987 M257.987,215.23H95.792c-0.965,0-1.885,0.412-2.529,1.131
					c-0.643,0.72-0.949,1.68-0.841,2.64l21.851,193.744c1.03,9.135,8.739,16.023,17.93,16.023h90.9
					c9.264,0,16.979-6.949,17.947-16.163l20.309-193.63c0.1-0.956-0.21-1.909-0.854-2.623
					C259.864,215.638,258.948,215.23,257.987,215.23L257.987,215.23z"/>
			</g>
			<g>
				<path fill="#FFF1B1" d="M223.104,425.377h-90.9c-7.457,0-13.725-5.603-14.561-13.012L95.792,218.622h162.194l-20.309,193.629
					C236.895,419.712,230.604,425.377,223.104,425.377z"/>
			</g>
			<linearGradient id="SVGID_1_" gradientUnits="userSpaceOnUse" x1="206.2378" y1="207.8672" x2="123.3192" y2="290.7857">
				<stop  offset="0" style="stop-color:#FEDC3C"/>
				<stop  offset="1" style="stop-color:#FEA618"/>
			</linearGradient>
			<path fill="url(#SVGID_1_)" d="M142.875,304.992c40.994,17.823,58.816-28.52,85.553-53.471c4.115-4.114,9.418-5.845,15.223-6.241
				c-2.342-1.422-5.033-2.365-8.094-2.671c-28.518-3.565-46.34,30.297-76.64,24.952c-22.619-4.847-37.917-18.483-53.855-32.938
				h-0.411l1.503,13.33C112.202,271.878,118.813,295.146,142.875,304.992z"/>
			<linearGradient id="SVGID_2_" gradientUnits="userSpaceOnUse" x1="106.1543" y1="332.0361" x2="247.6724" y2="332.0361">
				<stop  offset="0" style="stop-color:#FEDC3C"/>
				<stop  offset="1" style="stop-color:#FEA618"/>
			</linearGradient>
			<path fill="url(#SVGID_2_)" d="M228.428,251.521c-26.736,24.951-44.559,71.294-85.553,53.471
				c-24.063-9.846-30.673-33.114-36.721-57.04l19.268,170.839h104.389l17.861-170.28c-1.203-1.249-2.545-2.333-4.021-3.231
				C237.846,245.676,232.543,247.408,228.428,251.521z"/>
			<g>
				<path fill="#8EC5CC" d="M175.909,332.093l-7.302,8.223c-4.821,5.429-13.204,5.926-18.632,1.107l-8.224-7.304
					c-5.427-4.818-5.925-13.204-1.105-18.63l7.302-8.227c4.82-5.427,13.204-5.925,18.631-1.105l8.224,7.304
					C180.23,318.28,180.729,326.664,175.909,332.093z"/>
				<path fill="#8EC5CC" d="M155.194,367.253l-7.063,8.431c-4.662,5.563-13.029,6.301-18.593,1.638l-8.429-7.063
					c-5.563-4.662-6.301-13.028-1.639-18.593l7.064-8.43c4.662-5.562,13.028-6.301,18.592-1.638l8.43,7.063
					C159.119,353.324,159.855,361.688,155.194,367.253z"/>
				<path fill="#8EC5CC" d="M182.964,401.538l-6.846,8.61c-4.517,5.679-12.864,6.633-18.544,2.115l-8.608-6.846
					c-5.681-4.518-6.632-12.861-2.114-18.546l6.845-8.606c4.519-5.681,12.863-6.633,18.545-2.114l8.607,6.844
					C186.529,387.514,187.482,395.859,182.964,401.538z"/>
				<path fill="#8EC5CC" d="M226.118,403.389l-8.641,6.806c-5.701,4.491-14.043,3.501-18.533-2.2l-6.808-8.642
					c-4.491-5.702-3.499-14.042,2.203-18.532l8.64-6.807c5.701-4.492,14.043-3.502,18.533,2.201l6.805,8.641
					C232.809,390.558,231.819,398.896,226.118,403.389z"/>
				<path fill="#8EC5CC" d="M203.779,363.351l-7.266,8.257c-4.796,5.449-13.177,5.982-18.626,1.187l-8.257-7.265
					c-5.449-4.795-5.984-13.179-1.189-18.628l7.267-8.256c4.795-5.447,13.178-5.983,18.625-1.186l8.256,7.264
					C208.038,349.519,208.574,357.9,203.779,363.351z"/>
				<path fill="#8EC5CC" d="M224.518,329.565l-8.697,6.735c-5.738,4.444-14.071,3.387-18.516-2.354l-6.734-8.691
					c-4.445-5.74-3.389-14.07,2.35-18.517l8.695-6.735c5.738-4.447,14.07-3.388,18.516,2.351l6.736,8.695
					C231.311,316.788,230.254,325.12,224.518,329.565z"/>
				
					<path fill="none" stroke="#FFFFFF" stroke-width="1.6956" stroke-linecap="round" stroke-linejoin="round" stroke-miterlimit="10" d="
					M149.986,311.926c0,0,6.953-9.879,15.383-1.295"/>
				
					<path fill="none" stroke="#FFFFFF" stroke-width="1.6956" stroke-linecap="round" stroke-linejoin="round" stroke-miterlimit="10" d="
					M202.549,305.142c0,0,8.656-8.426,15.357,1.567"/>
				
					<path fill="none" stroke="#FFFFFF" stroke-width="1.6956" stroke-linecap="round" stroke-linejoin="round" stroke-miterlimit="10" d="
					M130.059,348.99c0,0,6.667-10.077,15.34-1.733"/>
				
					<path fill="none" stroke="#FFFFFF" stroke-width="1.6956" stroke-linecap="round" stroke-linejoin="round" stroke-miterlimit="10" d="
					M177.683,343.612c0,0,6.91-9.908,15.378-1.36"/>
				
					<path fill="none" stroke="#FFFFFF" stroke-width="1.6956" stroke-linecap="round" stroke-linejoin="round" stroke-miterlimit="10" d="
					M155.154,385.643c0,0,6.407-10.243,15.291-2.125"/>
				
					<path fill="none" stroke="#FFFFFF" stroke-width="1.6956" stroke-linecap="round" stroke-linejoin="round" stroke-miterlimit="10" d="
					M203.704,380.643c0,0,8.59-8.496,15.371,1.442"/>
			</g>
			<linearGradient id="SVGID_3_" gradientUnits="userSpaceOnUse" x1="243.6509" y1="246.8521" x2="248.0161" y2="246.8521">
				<stop  offset="0" style="stop-color:#FEDC3C"/>
				<stop  offset="1" style="stop-color:#FEA618"/>
			</linearGradient>
			<path fill="url(#SVGID_3_)" d="M248.016,245.222c-1.479-0.053-2.938-0.037-4.365,0.059c1.477,0.897,2.818,1.982,4.021,3.231
				L248.016,245.222z"/>
			<g>
				<path fill="#3F340C" d="M202.306,39.797c0.256,0,0.515,0.02,0.774,0.061c2.699,0.426,4.563,2.983,4.137,5.685l-56.311,357.123
					c-0.386,2.442-2.513,4.198-4.913,4.198c-0.255,0-0.513-0.02-0.772-0.061c-2.702-0.426-4.563-2.982-4.138-5.684l56.311-357.126
					C197.78,41.553,199.906,39.797,202.306,39.797 M202.306,37.028L202.306,37.028c-3.771,0-7.06,2.809-7.646,6.534l-56.311,357.126
					c-0.663,4.217,2.227,8.187,6.442,8.851c0.397,0.063,0.802,0.095,1.203,0.095c3.772,0,7.06-2.81,7.648-6.536l56.311-357.124
					c0.665-4.215-2.225-8.186-6.44-8.851C203.114,37.06,202.708,37.028,202.306,37.028L202.306,37.028z"/>
			</g>
			<g>
				<path fill="#FEA618" d="M145.222,406.804L145.222,406.804c-2.702-0.426-4.563-2.982-4.138-5.684l56.311-357.126
					c0.426-2.7,2.982-4.562,5.686-4.135l0,0c2.699,0.426,4.563,2.983,4.137,5.685l-56.311,357.123
					C150.48,405.368,147.922,407.229,145.222,406.804z"/>
			</g>
			<g>
				<path fill="#BF7D12" d="M204.103,39.858c-0.783-0.124-1.545-0.038-2.256,0.188c2.3,0.729,3.808,3.044,3.419,5.497
					l-56.308,357.123c-0.303,1.921-1.69,3.398-3.432,3.948c0.233,0.076,0.468,0.152,0.716,0.189c2.701,0.426,5.26-1.436,5.685-4.138
					l56.311-357.123C208.665,42.842,206.803,40.284,204.103,39.858z"/>
			</g>
			<path fill="#FFFFFF" d="M143.093,401.12l56.312-357.126c0.32-2.041,1.861-3.599,3.76-4.056c-0.102-0.023-0.197-0.063-0.304-0.08
				c-2.701-0.427-5.259,1.435-5.685,4.135L140.865,401.12c-0.425,2.701,1.436,5.258,4.138,5.684c0.659,0.104,1.31,0.067,1.923-0.08
				C144.396,406.156,142.684,403.715,143.093,401.12z"/>
			<g>
				<path fill="#3F340C" d="M276.108,202.284v9.208H77.374v-9.208H276.108 M276.108,198.893H77.374
					c-1.873,0-3.391,1.518-3.391,3.391v9.208c0,1.873,1.518,3.391,3.391,3.391h198.734c1.873,0,3.392-1.518,3.392-3.391v-9.208
					C279.5,200.411,277.981,198.893,276.108,198.893L276.108,198.893z"/>
			</g>
			<g>
				<path fill="#3F340C" d="M268.977,185.352v9.801H84.503v-9.801h11.289H268.977 M268.977,181.961H95.792H84.503
					c-1.873,0-3.391,1.518-3.391,3.391v9.801c0,1.873,1.518,3.391,3.391,3.391h184.474c1.873,0,3.392-1.518,3.392-3.391v-9.801
					C272.369,183.479,270.85,181.961,268.977,181.961L268.977,181.961z"/>
			</g>
			<g>
				<path fill="#3F340C" d="M195.872,101.58c6.225,0,12.379,1.431,17.896,4.314c15.532,8.124,44.003,28.923,44.22,72.327H94.604
					c0,0,3.112-52.13,45.445-72.783c5.283-2.578,11.114-3.857,16.993-3.857H195.872 M195.872,98.811h-38.83
					c-6.363,0-12.659,1.431-18.207,4.138c-17.946,8.755-31.766,24.531-39.964,45.622c-6.156,15.837-6.998,28.935-7.031,29.485
					c-0.046,0.762,0.225,1.508,0.749,2.064s1.252,0.87,2.016,0.87h163.383c0.737,0,1.443-0.293,1.963-0.816
					c0.52-0.522,0.81-1.23,0.807-1.967c-0.099-19.61-5.802-36.797-16.953-51.083c-9.425-12.075-20.838-19.544-28.753-23.684
					C209.255,100.411,202.625,98.811,195.872,98.811L195.872,98.811z"/>
			</g>
			<g>
				<rect x="76.929" y="202.284" fill="#FEDC3C" width="198.731" height="9.208"/>
			</g>
			<g>
				<polygon fill="#FEDC3C" points="268.53,195.153 84.058,195.153 84.058,185.352 95.347,185.352 268.53,185.352 				"/>
			</g>
			<g>
				<g>
					<polygon fill="#FFF1B1" points="76.929,202.284 76.929,211.492 78.383,211.492 87.592,202.284 					"/>
				</g>
				<g>
					<polygon fill="#F4E8CA" points="125.616,202.284 116.406,211.492 123.536,211.492 132.745,202.284 					"/>
				</g>
				<g>
					<polygon fill="#FFF1B1" points="132.745,202.284 123.536,211.492 148.489,211.492 157.698,202.284 					"/>
				</g>
				<g>
					<polygon fill="#F7FFA4" points="157.698,202.284 148.489,211.492 187.702,211.492 196.91,202.284 					"/>
				</g>
				<g>
					<polygon fill="#E8D195" points="227.803,202.284 196.91,202.284 187.702,211.492 218.596,211.492 					"/>
				</g>
				<g>
					<polygon fill="#E8E295" points="227.803,202.284 218.596,211.492 222.159,211.492 231.368,202.284 					"/>
				</g>
				<g>
					<polygon fill="#E8E295" points="242.657,202.284 231.368,202.284 222.159,211.492 233.448,211.492 					"/>
				</g>
				<g>
					<polygon fill="#F7FFA4" points="242.657,202.284 233.448,211.492 264.344,211.492 273.551,202.284 					"/>
				</g>
				<g>
					<polygon fill="#FFDCA4" points="264.344,211.492 275.661,211.492 275.661,202.284 273.551,202.284 					"/>
				</g>
				<g>
					<polygon fill="#F7FFA4" points="87.592,202.284 78.383,211.492 116.406,211.492 125.616,202.284 					"/>
				</g>
				<g>
					<polygon fill="#F7FFA4" points="95.347,185.352 84.058,185.352 84.058,195.153 88.186,195.153 97.989,185.352 					"/>
				</g>
				<g>
					<polygon fill="#E8E295" points="97.989,185.352 88.186,195.153 99.474,195.153 109.277,185.352 					"/>
				</g>
				<g>
					<polygon fill="#FFF1B1" points="109.277,185.352 99.474,195.153 126.209,195.153 136.013,185.352 					"/>
				</g>
				<g>
					<polygon fill="#F4E8CA" points="136.013,185.352 126.209,195.153 131.556,195.153 141.359,185.352 					"/>
				</g>
				<g>
					<polygon fill="#FFF1B1" points="141.359,185.352 131.556,195.153 175.523,195.153 185.325,185.352 					"/>
				</g>
				<g>
					<polygon fill="#E8E295" points="185.325,185.352 175.523,195.153 179.086,195.153 188.89,185.352 					"/>
				</g>
				<g>
					<polygon fill="#F7FFA4" points="188.89,185.352 179.086,195.153 190.375,195.153 200.176,185.352 					"/>
				</g>
				<g>
					<polygon fill="#E8D195" points="200.176,185.352 190.375,195.153 211.168,195.153 220.971,185.352 					"/>
				</g>
				<g>
					<polygon fill="#E8E295" points="220.971,185.352 211.168,195.153 232.555,195.153 242.36,185.352 					"/>
				</g>
				<g>
					<polygon fill="#F7FFA4" points="242.36,185.352 232.555,195.153 258.7,195.153 268.5,185.352 					"/>
				</g>
				<g>
					<polygon fill="#FFDCA4" points="258.7,195.153 268.53,195.153 268.53,185.352 268.5,185.352 					"/>
				</g>
			</g>
			<g>
				<path fill="#FFF1B1" d="M94.158,178.22c0,0,3.565-59.708,54.956-76.641h54.363c0,0,53.768,16.933,54.063,76.641H94.158z"/>
			</g>
			<g>
				<circle fill="#FEA618" cx="194.021" cy="247.501" r="9.143"/>
			</g>
			<g>
				<circle fill="#FEA618" cx="220.388" cy="269.406" r="12.763"/>
			</g>
			<g>
				<circle fill="#FEA618" cx="194.574" cy="280.624" r="5.905"/>
			</g>
			<g>
				<circle fill="#FEA618" cx="222.793" cy="297.359" r="5.906"/>
			</g>
			<g>
				<path fill="#FEA618" d="M230.78,365.818c0,3.262-2.643,5.905-5.902,5.905c-3.264,0-5.906-2.644-5.906-5.905
					s2.643-5.905,5.906-5.905C228.137,359.913,230.78,362.557,230.78,365.818z"/>
			</g>
			<circle fill="#FFFFFF" cx="211.777" cy="316.805" r="8.612"/>
			<circle fill="#FFFFFF" cx="196.503" cy="341.195" r="4.487"/>
			<circle fill="#FFFFFF" cx="216.083" cy="359.751" r="4.306"/>
			<path fill="#FFFFFF" d="M207.473,297.359c0,2.381-1.93,4.307-4.309,4.307c-2.376,0-4.304-1.926-4.304-4.307
				c0-2.375,1.928-4.305,4.304-4.305C205.543,293.055,207.473,294.984,207.473,297.359z"/>
			<g opacity="0.64">
				<polygon fill="#FFFFFF" points="117.278,218.622 140.598,425.377 155.723,425.377 132.404,218.622 				"/>
			</g>
			<polygon points="106.154,218.622 129.474,425.377 144.599,425.377 121.279,218.622 			"/>
			<circle fill="#FFFFFF" cx="196.166" cy="361.598" r="8.612"/>
			<path fill="#FFFFFF" d="M185.376,385.994c0,2.479-2.008,4.485-4.485,4.485c-2.479,0-4.488-2.007-4.488-4.485
				c0-2.48,2.009-4.487,4.488-4.487C183.369,381.507,185.376,383.514,185.376,385.994z"/>
			<circle fill="#FFFFFF" cx="220.39" cy="335.05" r="4.487"/>
			<circle fill="#FFFFFF" cx="200.472" cy="404.545" r="4.306"/>
			
				<path opacity="0.71" fill="none" stroke="#FFFFFF" stroke-width="2.7693" stroke-linecap="round" stroke-linejoin="round" stroke-miterlimit="10" d="
				M207.473,418.792c0,0,22.137,1.932,23.379-9.941c1.244-11.871,7.742-73.801,7.742-73.801"/>
			
				<line opacity="0.71" fill="none" stroke="#FFFFFF" stroke-width="2.7693" stroke-linecap="round" stroke-linejoin="round" stroke-miterlimit="10" x1="248.016" y1="226.866" x2="240.508" y2="316.805"/>
			
				<path fill="none" stroke="#FFFFFF" stroke-width="3.6924" stroke-linecap="round" stroke-linejoin="round" stroke-miterlimit="10" d="
				M203.165,112.05c0,0,44.143,18.715,44.508,60.6"/>
		</g>
	</g>
</g>
<g id="DESIGNED_BY_FREEPIK.COM">
</g>
</svg>
