<?xml version="1.0" encoding="utf-8"?>
<!-- Generator: Adobe Illustrator 16.0.0, SVG Export Plug-In . SVG Version: 6.00 Build 0)  -->
<!DOCTYPE svg PUBLIC "-//W3C//DTD SVG 1.1//EN" "http://www.w3.org/Graphics/SVG/1.1/DTD/svg11.dtd">
<svg version="1.1" id="Layer_1" xmlns="http://www.w3.org/2000/svg" xmlns:xlink="http://www.w3.org/1999/xlink" x="0px" y="0px"
	 width="683.471px" height="321.487px" viewBox="0 0 683.471 321.487" enable-background="new 0 0 683.471 321.487"
	 xml:space="preserve">
<g opacity="0.08">
	<path d="M169.124,72.651l-21.166,75.761h-17.91l-14.219-53.944l-14.871,53.944l-17.801,0.109L62.752,72.651h16.281l13.351,58.83
		l15.413-58.83h16.933l14.545,58.504l13.459-58.504H169.124z"/>
	<path d="M241.845,72.651v75.761h-15.196v-32.236h-32.454v32.236H179V72.651h15.196v31.151h32.454V72.651H241.845z"/>
	<path d="M317.064,72.651l-25.616,49.387v26.375h-15.195v-26.375l-25.725-49.387h17.15l16.281,34.625l16.174-34.625H317.064z"/>
	<path d="M366.666,72.651v46.891c0,5.138,1.339,9.063,4.016,11.777c2.677,2.713,6.44,4.07,11.289,4.07
		c4.92,0,8.72-1.357,11.396-4.07c2.677-2.714,4.017-6.639,4.017-11.777V72.651h15.305v46.782c0,6.441-1.394,11.886-4.18,16.336
		c-2.785,4.45-6.513,7.797-11.179,10.04c-4.667,2.242-9.86,3.365-15.577,3.365c-5.645,0-10.764-1.123-15.357-3.365
		c-4.596-2.242-8.233-5.589-10.91-10.04c-2.676-4.45-4.015-9.896-4.015-16.336V72.651H366.666z"/>
	<path d="M439.227,146.459c-4.232-1.807-7.582-4.412-10.041-7.815c-2.46-3.399-3.728-7.416-3.798-12.048h16.281
		c0.216,3.112,1.318,5.573,3.309,7.381c1.991,1.811,4.724,2.713,8.196,2.713c3.545,0,6.331-0.85,8.358-2.55
		c2.024-1.699,3.038-3.924,3.038-6.675c0-2.243-0.688-4.088-2.062-5.536c-1.377-1.447-3.093-2.586-5.155-3.419
		c-2.063-0.831-4.904-1.753-8.521-2.768c-4.922-1.446-8.921-2.876-11.996-4.287c-3.074-1.411-5.716-3.544-7.923-6.404
		c-2.208-2.858-3.311-6.676-3.311-11.452c0-4.485,1.122-8.393,3.366-11.722c2.241-3.328,5.388-5.878,9.441-7.652
		c4.053-1.772,8.685-2.659,13.895-2.659c7.814,0,14.165,1.899,19.049,5.699c4.885,3.799,7.58,9.101,8.087,15.901h-16.717
		c-0.146-2.604-1.248-4.757-3.309-6.458c-2.063-1.699-4.795-2.551-8.196-2.551c-2.968,0-5.337,0.76-7.11,2.279
		s-2.658,3.728-2.658,6.621c0,2.027,0.668,3.709,2.008,5.047c1.338,1.34,3.003,2.425,4.994,3.256
		c1.989,0.833,4.793,1.791,8.411,2.876c4.921,1.449,8.936,2.895,12.049,4.342c3.11,1.449,5.787,3.619,8.032,6.513
		c2.241,2.895,3.364,6.694,3.364,11.397c0,4.053-1.051,7.815-3.148,11.288c-2.1,3.474-5.175,6.242-9.225,8.304
		c-4.054,2.063-8.865,3.094-14.437,3.094C448.217,149.174,443.459,148.27,439.227,146.459z"/>
</g>
</svg>
